<svg width="57" height="57" viewBox="0 0 57 57" fill="none" xmlns="http://www.w3.org/2000/svg">
<path d="M34.9657 7.47205C34.7385 7.77483 34.6087 8.12627 34.4572 8.4723C34.2679 8.89944 34.2788 9.31035 34.4194 9.73208C34.5925 10.2619 34.7006 10.781 34.5222 11.3379C34.3112 11.9975 34.1435 12.0354 33.4621 12.057C32.0017 12.1057 30.5414 12.2246 29.1946 12.8842C28.7079 13.1221 28.6213 13.5331 28.5997 13.9926C28.5835 14.2576 28.5835 14.5279 28.5997 14.7928C28.6484 15.4687 28.3671 15.912 27.7451 16.204C26.4903 16.7988 25.3275 17.5557 24.2295 18.41C23.8671 18.6911 23.5264 19.0155 23.2289 19.3616C22.8719 19.7779 23.0342 20.1942 23.5751 20.3078C23.9591 20.3889 24.3377 20.3618 24.7325 20.3186C26.9825 20.0699 29.2433 19.8266 31.5095 19.9779C32.7806 20.0591 34.0786 20.0428 35.274 20.6159C35.9176 20.9241 36.28 21.454 36.4206 22.1244C36.5828 22.9246 36.0907 23.5194 35.2253 23.5681C34.7439 23.5951 34.2517 23.6383 33.7704 23.5248C33.2944 23.4113 32.8184 23.487 32.3695 23.5951C31.5474 23.7897 30.8172 23.6113 30.1087 23.2328C29.8437 23.0923 29.557 22.9895 29.3082 22.8273C28.3888 22.2164 27.3557 22.0974 26.2956 22.1353C25.3978 22.1677 24.5108 22.2975 23.6346 22.5245C21.7415 23.0274 20.4002 24.1141 19.7133 25.9903C19.2157 27.3582 18.9074 28.7478 18.9669 30.2076C19.0048 31.1267 19.2157 31.8837 20.1676 32.3325C21.6388 33.0245 23.045 33.8572 24.6892 34.1383C25.3275 34.2465 25.9278 34.2248 26.5498 34.0843C28.0967 33.7328 28.9945 34.7655 28.9729 36.0361C28.9567 37.2851 29.2325 38.3935 29.9194 39.3937C30.3629 40.0425 30.3413 40.6697 30.1141 41.3618C30.0113 41.6862 29.9356 42.0268 29.914 42.3621C29.8761 42.973 29.9573 43.5299 30.3359 44.0814C30.7686 44.7248 31.0282 45.4872 31.569 46.0711C32.429 46.9957 33.3431 47.093 34.322 46.3198C35.6093 45.2979 36.7397 44.1085 37.6808 42.7568C37.816 42.5621 37.935 42.3404 38.0973 42.1674C38.6057 41.6213 38.6922 40.9455 38.7409 40.2534C38.7842 39.637 38.8437 39.0207 38.8545 38.3989C38.8707 37.4527 39.3629 36.6795 39.8983 35.9388C40.6772 34.8628 41.5696 33.868 42.2565 32.7272C42.3917 32.5055 42.5161 32.2676 42.6081 32.0243C42.7811 31.5485 42.6459 31.3538 42.1591 31.3268C42.078 31.3268 41.9861 31.3052 41.9104 31.3268C40.9692 31.6242 40.3959 31.2241 39.8821 30.4293C39.1465 29.2884 38.557 28.0827 37.9837 26.8608C37.7727 26.4066 37.8376 25.9633 37.8917 25.5037" stroke="#7D4DBA" stroke-linecap="round" stroke-linejoin="round"/>
<path d="M26.2799 6.82324C26.2258 7.72618 25.8904 8.1425 25.025 8.27226C23.6296 8.47772 22.5371 9.24008 21.5148 10.1376C21.3039 10.3214 21.1146 10.5377 20.9091 10.7378C20.6441 10.9973 20.7847 11.392 21.0605 11.5434C21.4499 11.7488 21.8556 11.7921 22.2666 11.6407C23.2889 11.2622 24.3219 10.8891 25.2198 10.2782C26.269 9.56448 27.4481 9.35362 28.6434 9.14275C29.1248 9.05625 29.6116 9.00218 30.0984 8.9427C31.007 8.82916 31.6885 8.27226 32.4078 7.78565C32.608 7.65048 32.8081 7.51531 33.0082 7.38555" stroke="#7D4DBA" stroke-linecap="round" stroke-linejoin="round"/>
<path d="M7.15469 24.433C7.2196 24.8061 7.44135 25.0926 7.71178 25.3305C8.31755 25.8712 8.48522 26.5795 8.50685 27.3418C8.55553 28.6503 8.55553 29.9641 8.80433 31.2564C8.93954 31.9592 9.24784 32.5107 9.90769 32.8676C10.7514 33.3272 11.5357 33.8678 12.1252 34.6626C12.758 35.5115 13.0122 36.4198 12.6174 37.4255C12.1685 38.5609 11.963 39.7234 12.0171 40.9399C12.0333 41.3346 12.1252 41.7077 12.1739 42.0916" stroke="#7D4DBA" stroke-linecap="round" stroke-linejoin="round"/>
<path d="M17.4204 10.4348C17.7071 11.2404 17.7558 12.0785 17.5773 12.8895C17.3339 14.0195 16.4847 14.6521 15.4841 15.0955C14.8081 15.3982 14.1103 15.647 13.3802 15.8038C12.5959 15.9768 11.9469 16.4039 11.3682 16.95C10.5677 17.7124 9.83752 18.5396 9.16144 19.4101" stroke="#7D4DBA" stroke-linecap="round" stroke-linejoin="round"/>
<path d="M42.1432 38.6853C40.8073 39.5666 40.4719 41.0102 40.0447 42.3998C39.9527 42.6971 40.0284 43.0324 40.3421 43.1892C40.6017 43.3243 40.8397 43.2054 41.0993 43.0648C41.413 42.8918 41.5429 42.6214 41.6889 42.3457C42.1648 41.4536 42.365 40.4695 42.538 39.4855C42.5867 39.2098 42.4623 38.9719 42.1919 38.8367" stroke="#7D4DBA" stroke-linecap="round" stroke-linejoin="round"/>
<path d="M31.6507 50.278C31.2396 49.6019 30.5094 49.5046 29.8388 49.391C28.9463 49.2341 28.0377 49.1638 27.129 49.1746C26.6585 49.18 26.1879 49.1638 25.7228 49.0773C24.4734 48.8447 23.3105 49.2071 22.1585 49.6236" stroke="#7D4DBA" stroke-linecap="round" stroke-linejoin="round"/>
<path d="M50.424 22.2271C49.7695 22.2325 49.5261 22.519 49.3639 23.3787C49.2341 24.0816 49.2773 24.7845 49.2665 25.4873C49.2665 25.6225 49.2773 25.7577 49.2665 25.8874C49.2449 26.1416 49.1854 26.4011 48.9149 26.4822C48.6986 26.5471 48.5255 26.3957 48.3633 26.2443C47.8116 25.7306 47.4113 25.0981 47.0273 24.4763C46.0916 22.9732 44.6962 22.6758 43.1007 22.8326C42.6896 22.8705 42.2731 22.9191 41.9432 23.2273C41.6674 23.4868 41.6728 23.6707 41.9973 23.8815C42.1974 24.0113 42.4084 24.0708 42.6463 24.0924C42.9708 24.1194 43.3008 24.1411 43.6037 24.3249C44.0093 24.5736 44.2257 24.9196 44.0958 25.336C43.7605 26.3957 43.0574 27.1959 42.1866 27.8339C41.7215 28.1745 41.0075 27.9691 40.3909 27.3905C39.8933 26.9201 39.4174 26.4227 38.9306 25.9361C38.6548 25.6604 38.3194 25.5414 37.9246 25.5847" stroke="#7D4DBA" stroke-linecap="round" stroke-linejoin="round"/>
<path d="M2.01601 21.1132C1.54005 22.7622 1.25339 24.4437 1.09654 26.1361C0.939687 27.8554 0.982956 29.5748 1.16144 31.305C1.39401 33.5434 1.89161 35.7115 2.638 37.8255C3.6386 40.6425 5.08811 43.2107 6.94868 45.5573C7.99796 46.8819 9.14459 48.1093 10.421 49.2122C11.9625 50.5531 13.6392 51.7048 15.4348 52.6834" stroke="#7D4DBA" stroke-linecap="round" stroke-linejoin="round" stroke-dasharray="2 2"/>
<path d="M46.8641 8.0667C45.2739 6.61768 43.5215 5.39574 41.6393 4.36305C38.8106 2.80589 35.7818 1.79482 32.6015 1.32443C30.6976 1.04328 28.7722 0.9027 26.8305 1.07572C25.2025 1.2217 23.6015 1.42175 22.0114 1.80023C20.1508 2.23818 18.3605 2.88158 16.6406 3.70882C16.5595 3.74667 16.4729 3.77911 16.3918 3.81155" stroke="#7D4DBA" stroke-linecap="round" stroke-linejoin="round" stroke-dasharray="2 2"/>
<path d="M55.9726 28.2448C56.07 29.6776 55.8915 31.0995 55.6859 32.5107C55.0694 36.7226 53.5387 40.5939 51.1265 44.1029C50.472 45.0545 49.7743 45.979 48.9684 46.8117" stroke="#7D4DBA" stroke-linecap="round" stroke-linejoin="round" stroke-dasharray="2 2"/>
<path d="M41.4398 52.7321C38.887 54.1162 36.1664 55.0353 33.3106 55.5436C31.4663 55.868 29.6057 56.0626 27.7398 55.9815C26.1388 55.9112 24.5324 55.7977 22.9693 55.3922" stroke="#7D4DBA" stroke-linecap="round" stroke-linejoin="round" stroke-dasharray="2 2"/>
<path d="M12.6233 6.06079C11.5469 6.83423 10.5355 7.67797 9.56738 8.58122" stroke="#7D4DBA" stroke-linecap="round" stroke-linejoin="round" stroke-dasharray="2 2"/>
<path d="M27.9898 4.16296C27.3083 4.29813 26.616 4.21163 25.9291 4.29273C24.604 4.44952 23.3005 4.6712 22.0187 5.02264C19.3197 5.76878 16.8264 6.94746 14.5331 8.5749C10.309 11.5757 7.28552 15.4794 5.54935 20.3725C4.65152 22.9083 4.19178 25.5036 4.18097 28.2016C4.17015 30.4346 4.38109 32.6243 4.9544 34.7762C5.7657 37.8148 7.11786 40.5939 9.01629 43.1081C10.9255 45.6384 13.2296 47.7417 15.9448 49.3745C18.7627 51.0723 21.8023 52.1536 25.0745 52.6078C26.2266 52.77 27.3948 52.8781 28.5415 52.8619C30.5535 52.8349 32.5493 52.6078 34.518 52.105C37.9525 51.2291 41.0517 49.6827 43.7938 47.4659C46.9308 44.9356 49.3161 41.7888 50.917 38.0906C51.9176 35.7765 52.518 33.338 52.7343 30.8184C52.8749 29.2126 52.8533 27.6122 52.7019 26.001C52.399 22.8542 51.4957 19.9075 50.0246 17.123C49.2187 15.5929 48.2505 14.1709 47.1256 12.8517C45.6328 11.1053 43.9615 9.56975 42.0523 8.29375C39.9862 6.91502 37.774 5.8607 35.378 5.17403C33.3876 4.60091 31.3756 4.23866 29.2987 4.22785C28.8822 4.22785 28.4603 4.1954 28.0439 4.17918" stroke="#7D4DBA" stroke-linecap="round" stroke-linejoin="round"/>
</svg>
