<svg width="55" height="55" viewBox="0 0 55 55" fill="none" xmlns="http://www.w3.org/2000/svg">
<path d="M36.9581 11.6748C36.9581 11.6155 36.9581 11.5605 36.9581 11.5012C36.9175 10.7774 36.5838 10.2186 35.9433 9.7953C35.614 9.57518 35.2171 9.48206 34.6172 9.48206H8.51104H8.43437C8.4073 9.48206 8.38024 9.48206 8.35769 9.48206C8.29905 9.48206 8.24042 9.48206 8.18178 9.48629C7.95175 9.50322 7.68564 9.52862 7.43306 9.62175C6.60314 9.93076 6.06641 10.6715 6.06641 11.5097V44.2481C6.06641 44.32 6.06641 44.3878 6.06641 44.4555C6.10249 45.0058 6.30997 45.4545 6.69786 45.8228C7.12184 46.2291 7.66309 46.4239 8.35769 46.4239C15.3668 46.4239 22.3715 46.4239 29.3807 46.4239H34.6849C34.7345 46.4239 34.7841 46.4239 34.8337 46.4239C35.4111 46.3858 35.8756 46.208 36.2545 45.8736C36.7326 45.4545 36.9626 44.9169 36.9626 44.2311C36.9626 35.329 36.9626 26.4312 36.9626 17.5291V11.6705L36.9581 11.6748ZM35.8305 11.8399V44.1465C35.8305 44.2862 35.8305 44.4005 35.8035 44.519C35.6681 45.0862 35.2983 45.3614 34.6804 45.3614H8.42083C7.61798 45.3614 7.1895 44.9592 7.1895 44.1973V11.7129C7.1895 11.5816 7.1895 11.4843 7.20754 11.3869C7.28872 10.9213 7.57739 10.6461 8.07804 10.5699C8.1908 10.553 8.30807 10.5446 8.42083 10.5446H16.3997C22.4797 10.5446 28.5598 10.5446 34.6398 10.5446C35.154 10.5446 35.4967 10.7223 35.6907 11.0906C35.7899 11.2811 35.817 11.4885 35.826 11.6451C35.826 11.6917 35.826 11.7425 35.826 11.7891V11.8399H35.8305Z" fill="#7D4DBA"/>
<path d="M45.3342 22.4182C45.3342 20.2552 45.3342 18.0921 45.3252 15.9332C45.3206 14.6294 44.2111 13.5288 42.8038 13.4273C42.0506 13.3722 41.3244 13.6135 40.7606 14.1088C40.1878 14.6083 39.8495 15.3237 39.854 16.0179C39.8721 18.4857 39.8721 20.9917 39.8676 23.4172C39.8676 24.4332 39.8676 25.4491 39.8676 26.465V26.5201C39.8676 26.5582 39.8676 26.6005 39.8676 26.6386C39.9037 26.9053 40.0254 27.0704 40.251 27.1508C40.4539 27.2228 40.6298 27.1847 40.8057 27.0323C40.9411 26.9137 40.9952 26.7571 40.9952 26.5074C40.9952 24.3104 40.9952 22.1135 40.9952 19.9123V18.5916C40.9952 18.2275 41.0989 18.1344 41.4868 18.1302H42.1318C42.664 18.1302 43.1963 18.1302 43.7285 18.1302C43.8412 18.1302 43.9856 18.1386 44.0893 18.236C44.1976 18.3334 44.2066 18.4688 44.2066 18.5746C44.2021 19.8615 44.2021 21.1441 44.2021 22.4309V40.3791C44.2021 40.7516 44.0983 40.8489 43.7014 40.8489H41.4913C41.0944 40.8489 40.9907 40.7516 40.9907 40.3791V33.4326V33.3776C40.9907 33.3226 40.9907 33.2675 40.9907 33.2125C40.9771 33.0263 40.8734 32.8696 40.7155 32.7723C40.6253 32.7172 40.5306 32.6919 40.4314 32.6919C40.3727 32.6919 40.3186 32.7003 40.26 32.7215C40.0886 32.7765 39.8631 32.9035 39.8631 33.3395V41.2341C39.8631 41.395 39.8992 41.5559 39.9849 41.7294L40.3457 42.4914C40.6794 43.1983 41.0132 43.9052 41.347 44.6079C41.5906 45.1201 41.8476 45.628 42.1092 46.136C42.2581 46.4196 42.4611 46.4408 42.6054 46.4366C42.849 46.4239 43.0068 46.3053 43.1421 46.0387C43.8683 44.5994 44.5404 43.1729 45.2214 41.7125C45.2981 41.5516 45.3342 41.3781 45.3342 41.1791C45.3342 37.7376 45.3342 34.2962 45.3342 30.8547V22.4309V22.4182ZM44.2066 16.4454C44.2066 16.5428 44.2066 16.6401 44.2066 16.7417C44.2066 16.8603 44.1615 16.9322 44.1209 16.9703C44.0352 17.055 43.9179 17.0592 43.8683 17.0592H43.8593C43.5571 17.0592 43.2504 17.0592 42.9482 17.0592H42.3979H42.2942C41.9875 17.0592 41.6762 17.0592 41.365 17.0592C41.3064 17.0592 41.1801 17.0592 41.0854 16.9703C41.0448 16.9322 40.9952 16.8603 40.9952 16.7417C40.9952 16.6401 40.9952 16.5385 40.9952 16.4327C40.9907 16.2084 40.9816 15.9798 41.0222 15.747C41.153 15.0231 41.78 14.5067 42.5558 14.4855C43.3135 14.4771 43.963 14.9427 44.1525 15.6665C44.2201 15.9332 44.2156 16.1957 44.2111 16.4497L44.2066 16.4454ZM43.6789 42.3771C43.4714 42.7961 43.2639 43.211 43.0609 43.63C43.0249 43.702 42.9933 43.774 42.9617 43.8459C42.9346 43.9094 42.9076 43.9687 42.8805 44.0322C42.858 44.0787 42.7993 44.2057 42.655 44.2354C42.6415 44.2354 42.6189 44.2438 42.5919 44.2438C42.5107 44.2438 42.3889 44.2142 42.3212 44.0449L41.8747 43.1094C41.7574 42.8639 41.6447 42.6226 41.5229 42.3813C41.4958 42.3305 41.4192 42.1781 41.5184 42.0384C41.6131 41.903 41.7935 41.9072 41.8522 41.9072C42.0326 41.9072 42.2085 41.9072 42.3889 41.9072H42.6234H42.8399C43.0113 41.9072 43.1827 41.9072 43.3541 41.9072C43.5165 41.9072 43.6247 41.9495 43.6879 42.0384C43.7871 42.1781 43.7104 42.3305 43.6879 42.3813L43.6789 42.3771Z" fill="#7D4DBA"/>
<path d="M40.8101 30.2875C40.9229 30.1817 40.986 30.0462 40.986 29.9192C40.986 29.6398 40.7244 29.3986 40.4312 29.3986C40.2824 29.3986 40.1426 29.4536 40.0388 29.5552C39.9261 29.661 39.8674 29.7965 39.8674 29.9446C39.8674 30.1986 40.1471 30.4526 40.4267 30.4526C40.5485 30.4441 40.7019 30.3933 40.8146 30.2875H40.8101Z" fill="#7D4DBA"/>
<path d="M12.1868 27.6673C12.2544 27.7308 12.3446 27.8282 12.3446 27.9594C12.3446 28.0906 12.2589 28.188 12.1822 28.2557C11.7808 28.624 11.3839 29.0007 10.987 29.3732L10.4683 29.8643C10.3059 30.0167 10.2428 30.1394 10.2518 30.296V30.3045C10.2518 30.5881 10.4999 30.8167 10.8111 30.8252C10.9735 30.8252 11.1088 30.7617 11.2892 30.5966C11.5102 30.3892 11.7312 30.1818 11.9522 29.9743C12.2183 29.7203 12.489 29.4706 12.7551 29.2208L12.8769 29.1066C13.0437 28.9499 13.143 28.8526 13.2963 28.8526C13.4452 28.8526 13.5399 28.9457 13.6571 29.0642C13.6977 29.1066 13.7474 29.1531 13.8105 29.2124C14.0541 29.4367 14.2976 29.6653 14.5367 29.8897C14.8208 30.1564 15.1005 30.423 15.3937 30.6855C15.6102 30.8802 15.8898 30.8844 16.1243 30.694C16.3499 30.5119 16.3859 30.241 16.2191 30.004C16.1694 29.932 16.1018 29.8558 16.0071 29.7711L15.9078 29.678C15.4162 29.2082 14.9201 28.7383 14.4194 28.2769C14.3518 28.2134 14.257 28.1118 14.257 27.9679C14.257 27.8282 14.3472 27.7266 14.4149 27.6589C14.9471 27.1636 15.4703 26.6599 15.9935 26.1561C16.0612 26.0926 16.1469 26.0037 16.2145 25.9106C16.3183 25.7667 16.3408 25.6016 16.2867 25.4492C16.2281 25.2968 16.0973 25.1783 15.9169 25.1233C15.6958 25.0555 15.5109 25.1148 15.2899 25.3222C14.7216 25.8513 14.1533 26.3805 13.594 26.9181C13.5218 26.9858 13.4226 27.062 13.2873 27.062C13.152 27.062 13.0437 26.9773 12.9806 26.9181C12.4664 26.4228 11.9477 25.9402 11.4245 25.4534L11.3794 25.4111C11.3117 25.3476 11.217 25.263 11.1178 25.1995C10.978 25.1106 10.8201 25.0809 10.6713 25.1148C10.5179 25.1529 10.3916 25.2503 10.3104 25.3942C10.1841 25.627 10.2202 25.8217 10.4367 26.0291C11.0141 26.5752 11.5914 27.1213 12.1777 27.6631L12.1868 27.6673Z" fill="#7D4DBA"/>
<path d="M16.012 39.685L15.8992 39.5792C15.4121 39.1135 14.9204 38.6479 14.4288 38.1907C14.3611 38.1272 14.2664 38.0256 14.2664 37.8859C14.2664 37.7463 14.3566 37.6447 14.4288 37.5769C14.961 37.0817 15.4842 36.5779 16.0074 36.0784C16.1067 35.9811 16.1743 35.9049 16.2285 35.8329C16.3277 35.689 16.3547 35.5281 16.3006 35.38C16.2465 35.2318 16.1157 35.1133 15.9443 35.054C15.7233 34.9821 15.5293 35.0413 15.3038 35.2488C14.7355 35.7779 14.1672 36.307 13.6079 36.8446C13.5448 36.9081 13.441 36.9885 13.3012 36.9885C13.1614 36.9885 13.0622 36.9123 12.9945 36.8446C12.5029 36.3705 12.0022 35.9049 11.5061 35.4392L11.3978 35.3377C11.2986 35.2488 11.2219 35.1853 11.1497 35.1345C11.0054 35.0371 10.8385 35.0075 10.6852 35.0456C10.5318 35.0837 10.401 35.1895 10.3198 35.3419C10.2026 35.5705 10.2432 35.761 10.4551 35.9641C10.834 36.324 11.2129 36.6795 11.5918 37.0351L12.1511 37.56C12.4262 37.8182 12.4262 37.9537 12.1556 38.2077L10.4687 39.7951C10.3108 39.9432 10.2477 40.0744 10.2522 40.2353V40.248V40.2607C10.2522 40.2734 10.2522 40.3284 10.2792 40.3961C10.3514 40.5697 10.4822 40.6882 10.6491 40.7348C10.8115 40.7771 10.9874 40.7475 11.1452 40.6417C11.2354 40.5824 11.3166 40.5062 11.4023 40.4215L12.1195 39.7443C12.3946 39.486 12.6652 39.2321 12.9404 38.9738C13.0802 38.8426 13.1884 38.7791 13.2922 38.7791C13.3959 38.7791 13.5042 38.8426 13.6395 38.9696L14.3837 39.6681C14.7175 39.9855 15.0512 40.303 15.394 40.612C15.6105 40.8068 15.8902 40.811 16.1247 40.6163C16.3547 40.43 16.3863 40.1676 16.2149 39.9263C16.1653 39.8543 16.0977 39.7824 16.0029 39.6935L16.012 39.685Z" fill="#7D4DBA"/>
<path d="M20.8514 20.9028H25.0686H32.0372C32.0958 20.9028 32.1499 20.9028 32.2086 20.9028C32.4296 20.8859 32.6145 20.7716 32.7047 20.598C32.7904 20.433 32.7724 20.2467 32.6596 20.0816C32.5423 19.9123 32.3619 19.8403 32.0552 19.8403H20.8965C20.8198 19.8403 20.7837 19.8403 20.7476 19.8403C20.468 19.8742 20.2966 19.9927 20.2064 20.2255C20.1342 20.4118 20.1793 20.5769 20.3462 20.742C20.459 20.852 20.6078 20.8986 20.8559 20.8986L20.8514 20.9028Z" fill="#7D4DBA"/>
<path d="M32.2089 30.8166C32.4299 30.7997 32.6149 30.6854 32.7051 30.5119C32.7908 30.3468 32.7727 30.1605 32.66 29.9954C32.5427 29.8261 32.3623 29.7542 32.0556 29.7542H20.8923C20.8157 29.7542 20.7796 29.7542 20.7435 29.7542C20.4638 29.7838 20.2925 29.9065 20.2022 30.1394C20.1301 30.3256 20.1752 30.4907 20.3421 30.6558C20.4548 30.7658 20.6037 30.8124 20.8517 30.8124H25.0509H32.033C32.0917 30.8124 32.1458 30.8124 32.2044 30.8124L32.2089 30.8166Z" fill="#7D4DBA"/>
<path d="M32.1004 39.6764H20.8424C20.8424 39.6764 20.8064 39.6764 20.7928 39.6764C20.7703 39.6764 20.7522 39.6764 20.7387 39.6764C20.4591 39.7145 20.2877 39.8372 20.202 40.0701C20.1343 40.2563 20.1794 40.4214 20.3508 40.5865C20.4636 40.6923 20.6124 40.7389 20.8695 40.7389H31.9696H32.0282C32.0869 40.7389 32.1455 40.7389 32.2041 40.7389C32.4251 40.722 32.6146 40.6077 32.7048 40.4383C32.7905 40.2732 32.777 40.087 32.6642 39.9219C32.5514 39.7568 32.371 39.6806 32.1004 39.6806V39.6764Z" fill="#7D4DBA"/>
<path d="M10.9642 19.7219C11.289 20.0267 11.6137 20.3314 11.9385 20.6362C12.3173 20.9876 12.5609 20.9876 12.9488 20.632L15.9888 17.7704C16.0655 17.6985 16.1376 17.6265 16.2008 17.5461C16.3226 17.3937 16.3587 17.2117 16.2955 17.0466C16.2324 16.8815 16.088 16.763 15.8941 16.7164C15.6911 16.6698 15.5197 16.7376 15.2942 16.945L12.7864 19.3028C12.6646 19.4171 12.5789 19.4975 12.4391 19.4975C12.2993 19.4975 12.2136 19.4171 12.0918 19.3028L11.7941 19.0192C11.6002 18.8329 11.4062 18.6467 11.2078 18.4647C11.0183 18.2953 10.8154 18.2615 10.5808 18.3588C10.3779 18.4435 10.2696 18.5832 10.2471 18.7864C10.2561 18.9726 10.3373 19.1292 10.4997 19.2816L10.9642 19.7176V19.7219Z" fill="#7D4DBA"/>
<path d="M20.8332 16.2338H23.2914H24.0807C24.6535 16.2338 25.2308 16.2338 25.8082 16.2338C26.0517 16.2338 26.2592 16.1279 26.3584 15.9501C26.4532 15.7893 26.4441 15.5946 26.3314 15.421C26.2186 15.2475 26.0427 15.1713 25.7405 15.1713H20.8603C20.8061 15.1713 20.7791 15.1713 20.752 15.1713C20.4769 15.2009 20.3055 15.3194 20.2153 15.5395C20.1341 15.73 20.1747 15.8909 20.3371 16.0602C20.4453 16.1745 20.6032 16.2295 20.8377 16.2295L20.8332 16.2338Z" fill="#7D4DBA"/>
<path d="M20.8158 26.1519H22.6064H23.2965H24.0813C24.6587 26.1519 25.236 26.1519 25.8133 26.1519C26.0569 26.1519 26.2598 26.0418 26.3636 25.8683C26.4583 25.7032 26.4493 25.5127 26.332 25.3391C26.2193 25.1698 26.0479 25.0936 25.7772 25.0936C24.5008 25.0936 23.2243 25.0936 21.9479 25.0936H20.8203C20.7887 25.0936 20.7707 25.0936 20.7527 25.0936C20.4775 25.1275 20.3061 25.246 20.2159 25.4661C20.1392 25.6566 20.1753 25.8175 20.3422 25.9868C20.4505 26.1011 20.6038 26.1519 20.8248 26.1519H20.8158Z" fill="#7D4DBA"/>
<path d="M25.7498 35.0116H20.8515C20.7974 35.0116 20.7703 35.0116 20.7433 35.0116C20.4681 35.0455 20.2967 35.164 20.2065 35.3841C20.1298 35.5746 20.1704 35.7354 20.3328 35.9048C20.4411 36.0148 20.5944 36.0699 20.8154 36.0699H22.5835H23.2916H24.099C24.6673 36.0699 25.2401 36.0699 25.8084 36.0699C26.0475 36.0699 26.255 35.9598 26.3542 35.7862C26.4489 35.6212 26.4399 35.4307 26.3226 35.2571C26.2099 35.0878 26.0339 35.0116 25.7453 35.0116H25.7498Z" fill="#7D4DBA"/>
<path d="M32.1949 15.1797C31.2162 15.167 30.3186 15.167 29.4526 15.1797C29.2948 15.1797 29.1549 15.239 29.0512 15.3405C28.9475 15.4421 28.8933 15.5734 28.8978 15.7131C28.9024 16.0136 29.1504 16.2253 29.5022 16.2337C29.8089 16.238 30.1202 16.2337 30.4269 16.2337H30.8328H31.2793C31.5815 16.2337 31.8837 16.2337 32.1814 16.2337C32.5017 16.2253 32.7678 15.9924 32.7723 15.7088C32.7723 15.4252 32.5152 15.1839 32.1995 15.1797H32.1949Z" fill="#7D4DBA"/>
<path d="M32.1454 25.0936C31.8387 25.0893 31.532 25.0936 31.2253 25.0936H30.8329H30.4134C30.2736 25.0936 30.1383 25.0936 29.9985 25.0936C29.8226 25.0936 29.6422 25.0936 29.4663 25.102C29.1415 25.1105 28.8979 25.3306 28.8934 25.6142C28.8934 25.919 29.1235 26.1476 29.4482 26.1518C30.206 26.1645 31.2028 26.173 32.2041 26.1518C32.4161 26.1476 32.592 26.0502 32.6912 25.8809C32.7859 25.7116 32.7769 25.5126 32.6641 25.3433C32.5559 25.1825 32.389 25.102 32.1454 25.0978V25.0936Z" fill="#7D4DBA"/>
<path d="M32.2086 35.0159C31.293 35.0032 30.3638 35.0032 29.4482 35.0159C29.137 35.0201 28.8934 35.2487 28.8934 35.5365C28.8934 35.8498 29.137 36.0614 29.4978 36.0699C29.8045 36.0741 30.1112 36.0699 30.4179 36.0699H30.8284H31.2704C31.5726 36.0699 31.8748 36.0699 32.177 36.0699C32.4972 36.0614 32.7634 35.8244 32.7634 35.545C32.7634 35.2656 32.5108 35.0243 32.2041 35.0201L32.2086 35.0159Z" fill="#7D4DBA"/>
<path d="M4.50138 40.633C4.35253 40.633 4.2082 40.5653 4.1225 40.4383C1.42529 36.5354 0 32.0061 0 27.3328C0 22.6595 1.42078 18.1471 4.10446 14.2527C4.23977 14.058 4.51942 13.9987 4.7269 14.1257C4.93437 14.2527 4.99752 14.5151 4.86221 14.7099C2.27324 18.4688 0.902079 22.8331 0.902079 27.3328C0.902079 31.8325 2.27775 36.2137 4.88025 39.9769C5.01556 40.1716 4.95693 40.4341 4.74945 40.5611C4.67277 40.6076 4.58707 40.6288 4.50589 40.6288L4.50138 40.633Z" fill="#7D4DBA"/>
<path d="M25.7 51.4527C21.2708 51.4527 16.9003 50.3775 13.0664 48.3414C12.8499 48.2271 12.7732 47.9689 12.895 47.7657C13.0168 47.5625 13.2919 47.4906 13.5084 47.6048C17.207 49.569 21.4242 50.6061 25.7 50.6061C30.6931 50.6061 35.5011 49.2219 39.6146 46.5974C39.8221 46.4662 40.1017 46.517 40.2416 46.7117C40.3814 46.9064 40.3273 47.1688 40.1198 47.3001C35.8575 50.0177 30.869 51.4527 25.7 51.4527Z" fill="#7D4DBA"/>
<path d="M47.9143 39.0245C47.8421 39.0245 47.7699 39.0075 47.6978 38.9737C47.4768 38.8636 47.3956 38.6054 47.5174 38.398C49.4659 35.0242 50.4942 31.1976 50.4942 27.3328C50.4942 14.5024 39.3716 4.0595 25.7006 4.0595C20.1483 4.0595 14.9027 5.74002 10.5276 8.92327C10.3291 9.06719 10.045 9.03333 9.89613 8.84708C9.74278 8.66082 9.77886 8.39837 9.97732 8.25445C14.5148 4.95691 19.9498 3.21289 25.7051 3.21289C39.8767 3.21289 51.4008 14.0326 51.4008 27.3328C51.4008 31.3373 50.3318 35.3036 48.3157 38.8001C48.2345 38.9398 48.0812 39.0202 47.9188 39.0202L47.9143 39.0245Z" fill="#7D4DBA"/>
<path d="M25.7005 55.0001C25.4705 55.0001 25.2405 55.0001 25.0104 54.9916C24.7263 54.9874 24.5008 54.763 24.5098 54.4964C24.5143 54.2339 24.7443 54.0265 25.024 54.0265C25.024 54.0265 25.033 54.0265 25.0375 54.0265C25.2585 54.0307 25.4795 54.035 25.7005 54.035C25.9847 54.035 26.2147 54.2508 26.2147 54.5175C26.2147 54.7842 25.9847 55.0001 25.7005 55.0001Z" fill="#7D4DBA"/>
<path d="M23.6706 54.9323C23.6706 54.9323 23.6481 54.9323 23.6345 54.9323C23.179 54.9027 22.7189 54.8604 22.2634 54.8138C21.9792 54.7842 21.7808 54.5429 21.8123 54.2804C21.8439 54.0138 22.101 53.8275 22.3807 53.8571C22.8182 53.9037 23.2647 53.9418 23.7022 53.9714C23.9864 53.9884 24.1983 54.2212 24.1803 54.4879C24.1623 54.7418 23.9367 54.9366 23.6661 54.9366L23.6706 54.9323ZM20.9824 54.636C20.9554 54.636 20.9283 54.636 20.8967 54.6276C20.4457 54.5598 19.9901 54.4752 19.5436 54.3863C19.264 54.3312 19.0881 54.073 19.1467 53.8148C19.2053 53.5524 19.4805 53.3873 19.7556 53.4423C20.1886 53.527 20.6261 53.6074 21.0591 53.6751C21.3387 53.7175 21.5282 53.9672 21.4831 54.2297C21.4425 54.4667 21.2215 54.636 20.9779 54.636H20.9824ZM18.3393 54.1069C18.2942 54.1069 18.2536 54.1027 18.2085 54.09C17.7665 53.9799 17.32 53.8614 16.887 53.7302C16.6164 53.6497 16.4675 53.3788 16.5532 53.1248C16.6389 52.8708 16.9276 52.7269 17.1982 52.8116C17.6177 52.9343 18.0462 53.0529 18.4746 53.1587C18.7498 53.2264 18.9122 53.4889 18.84 53.7471C18.7814 53.963 18.5694 54.1069 18.3438 54.1069H18.3393ZM15.7594 53.3449C15.7008 53.3449 15.6421 53.3365 15.5835 53.3153C15.1505 53.1672 14.722 53.0063 14.3025 52.8412C14.0409 52.7354 13.9191 52.456 14.0274 52.2105C14.1402 51.965 14.4424 51.8507 14.6994 51.9523C15.1009 52.1131 15.5203 52.2655 15.9353 52.4094C16.2014 52.5026 16.3367 52.7777 16.242 53.0275C16.1653 53.2222 15.9669 53.3449 15.7594 53.3449ZM13.2696 52.3586C13.193 52.3586 13.1208 52.3417 13.0486 52.3121C12.6337 52.1258 12.2232 51.9269 11.8218 51.7279C11.5737 51.6009 11.479 51.3088 11.6143 51.076C11.7496 50.8432 12.0609 50.7543 12.3089 50.8813C12.6968 51.076 13.0937 51.2665 13.4907 51.4443C13.7478 51.5586 13.856 51.8464 13.7342 52.0877C13.644 52.2613 13.4636 52.3629 13.2696 52.3629V52.3586ZM10.8882 51.1565C10.798 51.1565 10.7077 51.1353 10.622 51.0887C10.2296 50.8686 9.83724 50.6358 9.45836 50.3987C9.22382 50.2506 9.15617 49.95 9.31403 49.7299C9.47189 49.5098 9.79213 49.4505 10.0267 49.5945C10.392 49.8231 10.7709 50.0474 11.1498 50.2633C11.3933 50.3987 11.47 50.6951 11.3257 50.9236C11.2309 51.076 11.0596 51.1565 10.8836 51.1565H10.8882ZM8.63747 49.7469C8.52922 49.7469 8.42548 49.7172 8.33076 49.6537C7.96091 49.3997 7.59557 49.1331 7.24376 48.8621C7.02275 48.6928 6.99118 48.3923 7.16708 48.1849C7.3475 47.9774 7.66774 47.9478 7.88874 48.1129C8.23153 48.3711 8.58335 48.6293 8.93967 48.8748C9.1697 49.0315 9.2148 49.3362 9.04792 49.5479C8.94869 49.6749 8.79082 49.7426 8.63296 49.7426L8.63747 49.7469ZM6.54014 48.1468C6.41835 48.1468 6.29657 48.1044 6.19735 48.024C5.85456 47.7362 5.51628 47.4398 5.19153 47.1435C4.98856 46.9573 4.98405 46.6525 5.18702 46.462C5.38547 46.2715 5.71022 46.2673 5.91319 46.4535C6.22441 46.7414 6.54916 47.025 6.88293 47.3044C7.09491 47.4822 7.11296 47.787 6.92352 47.9859C6.82429 48.0917 6.67996 48.1468 6.54014 48.1468ZM4.60969 46.3689C4.46986 46.3689 4.33455 46.3181 4.23532 46.2165C3.92411 45.9032 3.6174 45.5773 3.32422 45.2514C3.1393 45.0482 3.16636 44.7434 3.38286 44.5698C3.59936 44.3963 3.92411 44.4217 4.10903 44.6249C4.39319 44.9423 4.69087 45.2556 4.98856 45.5561C5.18251 45.7509 5.16898 46.0556 4.9615 46.2377C4.86227 46.3223 4.73598 46.3689 4.60969 46.3689Z" fill="#7D4DBA"/>
<path d="M2.86424 44.4344C2.71089 44.4344 2.55753 44.3709 2.45379 44.2439C2.31397 44.0745 2.17415 43.901 2.03884 43.7274C1.87195 43.5115 1.92157 43.211 2.1516 43.0544C2.38163 42.8978 2.70187 42.9443 2.86875 43.1602C2.99955 43.3295 3.13035 43.4946 3.26567 43.6597C3.43706 43.8714 3.39647 44.1761 3.17095 44.337C3.07623 44.4047 2.96798 44.4386 2.85973 44.4386L2.86424 44.4344Z" fill="#7D4DBA"/>
<path d="M54.4768 28.6154H54.4677C54.1836 28.6111 53.9581 28.3868 53.9626 28.1243C53.9671 27.9169 53.9716 27.7095 53.9716 27.4978C53.9716 27.2311 54.2016 27.0153 54.4858 27.0153C54.7699 27.0153 55 27.2311 55 27.4978C55 27.7137 55 27.9296 54.9909 28.1413C54.9864 28.4037 54.7564 28.6154 54.4768 28.6154Z" fill="#7D4DBA"/>
<path d="M33.5033 53.9925C33.2778 53.9925 33.0703 53.8528 33.0071 53.6411C32.9305 53.3829 33.0883 53.1162 33.3635 53.0442C33.7784 52.9342 34.1844 52.8157 34.5903 52.6929C34.8609 52.6082 35.1496 52.7479 35.2398 52.9977C35.33 53.2517 35.1812 53.5226 34.915 53.6072C34.4956 53.7385 34.0671 53.8612 33.6431 53.9713C33.598 53.984 33.5484 53.9882 33.5033 53.9882V53.9925ZM35.9885 53.222C35.781 53.222 35.5871 53.1035 35.5104 52.913C35.4067 52.6633 35.542 52.3839 35.8081 52.2908C36.2095 52.1468 36.6064 51.9945 36.9988 51.8336C37.2604 51.7278 37.5626 51.8378 37.6754 52.0833C37.7882 52.3289 37.6709 52.6125 37.4093 52.7183C37.0034 52.8834 36.5929 53.0443 36.1779 53.1924C36.1193 53.2136 36.0562 53.2263 35.993 53.2263L35.9885 53.222ZM38.388 52.24C38.1986 52.24 38.0137 52.1426 37.928 51.9691C37.8017 51.732 37.9054 51.4399 38.1625 51.3214C38.5459 51.1436 38.9293 50.9574 39.3037 50.7626C39.5517 50.6356 39.8675 50.7203 40.0028 50.9531C40.1381 51.1859 40.0479 51.4823 39.7998 51.6092C39.4119 51.8082 39.0195 52.0029 38.6181 52.1849C38.5459 52.2188 38.4692 52.2357 38.3926 52.2357L38.388 52.24ZM40.6793 51.059C40.5079 51.059 40.3365 50.9785 40.2418 50.8261C40.093 50.5975 40.1697 50.3012 40.4132 50.1615C40.7786 49.9499 41.1394 49.734 41.4957 49.5097C41.7302 49.3615 42.0505 49.4208 42.2084 49.6409C42.3662 49.861 42.3031 50.1615 42.0685 50.3097C41.7032 50.5425 41.3243 50.7669 40.95 50.987C40.8643 51.0336 40.774 51.059 40.6838 51.059H40.6793ZM42.8488 49.6874C42.691 49.6874 42.5376 49.6197 42.4339 49.4927C42.2625 49.2811 42.3121 48.9763 42.5376 48.8154C42.8804 48.5742 43.2187 48.3286 43.5524 48.0747C43.7735 47.9053 44.0982 47.9392 44.2741 48.1424C44.4545 48.3498 44.423 48.6546 44.2019 48.8197C43.8592 49.0821 43.5073 49.3403 43.151 49.5858C43.0608 49.6493 42.9526 49.6832 42.8443 49.6832L42.8488 49.6874ZM44.8785 48.1339C44.7387 48.1339 44.5989 48.0789 44.4951 47.9731C44.3057 47.7741 44.3237 47.4693 44.5357 47.2915C44.856 47.0249 45.1672 46.7497 45.4739 46.4661C45.6768 46.2798 46.0016 46.2841 46.2001 46.4746C46.3985 46.665 46.394 46.9698 46.191 47.1561C45.8753 47.4482 45.5506 47.7318 45.2168 48.0112C45.1176 48.0916 44.9958 48.1339 44.874 48.1339H44.8785ZM46.7503 46.4153C46.624 46.4153 46.4977 46.373 46.3985 46.2841C46.191 46.1021 46.182 45.7973 46.376 45.6026C46.6691 45.3105 46.9533 45.0099 47.2329 44.7009C47.4179 44.4977 47.7426 44.4723 47.9591 44.6459C48.1756 44.8194 48.2027 45.1242 48.0177 45.3274C47.7291 45.6449 47.4359 45.9539 47.1292 46.2587C47.03 46.3603 46.8901 46.4111 46.7548 46.4111L46.7503 46.4153ZM48.4462 44.5443C48.338 44.5443 48.2252 44.5104 48.1305 44.4427C47.905 44.2776 47.8644 43.9771 48.0403 43.7654C48.3019 43.4479 48.559 43.1262 48.8071 42.796C48.9694 42.5802 49.2897 42.5251 49.5242 42.6818C49.7542 42.8341 49.8129 43.1389 49.646 43.3548C49.3889 43.6934 49.1273 44.0279 48.8522 44.358C48.7529 44.4808 48.5996 44.5443 48.4462 44.5443ZM49.9572 42.5378C49.8625 42.5378 49.7678 42.5124 49.6821 42.4616C49.443 42.3177 49.3709 42.0214 49.5242 41.7928C49.7542 41.4542 49.9798 41.1113 50.1918 40.7642C50.3361 40.5356 50.6473 40.4552 50.8954 40.5864C51.1389 40.7218 51.2246 41.0139 51.0848 41.2467C50.8638 41.6066 50.6293 41.9621 50.3902 42.3135C50.291 42.4574 50.1286 42.5378 49.9572 42.5378ZM51.2697 40.4128C51.1886 40.4128 51.1074 40.3959 51.0352 40.3578C50.7826 40.235 50.6834 39.943 50.8142 39.7059C51.0126 39.3503 51.2021 38.9905 51.3825 38.6223C51.4998 38.381 51.8065 38.2751 52.0636 38.3852C52.3207 38.4953 52.4334 38.7831 52.3116 39.0244C52.1222 39.4054 51.9283 39.7821 51.7253 40.1462C51.6351 40.3112 51.4547 40.4044 51.2697 40.4044V40.4128ZM52.3703 38.182C52.3071 38.182 52.2395 38.1693 52.1763 38.1482C51.9147 38.0466 51.7884 37.7672 51.8967 37.5174C52.0591 37.1449 52.2124 36.7682 52.3567 36.3914C52.4515 36.1417 52.7446 36.0105 53.0153 36.0994C53.2814 36.1883 53.4212 36.4634 53.3265 36.7174C53.1776 37.1111 53.0198 37.5005 52.8529 37.8857C52.7717 38.072 52.5778 38.1863 52.3748 38.1863L52.3703 38.182ZM53.2453 35.8665C53.1957 35.8665 53.1461 35.8581 53.0965 35.8454C52.8258 35.7692 52.6725 35.4983 52.7537 35.2443C52.8799 34.8591 52.9927 34.4739 53.101 34.0844C53.1731 33.8262 53.4528 33.6696 53.7279 33.7373C54.003 33.805 54.1699 34.0675 54.0978 34.3257C53.9895 34.7279 53.8677 35.1342 53.7369 35.5279C53.6693 35.7353 53.4663 35.8708 53.2453 35.8708V35.8665ZM53.8948 33.4876C53.8587 33.4876 53.8271 33.4876 53.7911 33.4791C53.5114 33.4241 53.3355 33.1701 53.3941 32.9076C53.4798 32.514 53.5565 32.1203 53.6242 31.7224C53.6693 31.4599 53.9309 31.2779 54.215 31.3203C54.4947 31.3626 54.6886 31.6081 54.6435 31.8748C54.5759 32.2854 54.4947 32.696 54.4045 33.1066C54.3549 33.3352 54.1384 33.4918 53.8993 33.4918L53.8948 33.4876ZM54.3097 31.062C54.3097 31.062 54.2692 31.062 54.2511 31.062C53.9715 31.0324 53.7685 30.7911 53.8001 30.5287C53.8497 30.1308 53.8858 29.7286 53.9173 29.3265C53.9354 29.0598 54.1835 28.8651 54.4676 28.8778C54.7518 28.8947 54.9638 29.1275 54.9457 29.3942C54.9141 29.8091 54.8735 30.2281 54.8239 30.6387C54.7924 30.8842 54.5714 31.0663 54.3143 31.0663L54.3097 31.062Z" fill="#7D4DBA"/>
<path d="M31.5638 54.4371C31.3248 54.4371 31.1128 54.2804 31.0587 54.0518C31 53.7894 31.1804 53.5354 31.4601 53.4804C31.6766 53.4381 31.8931 53.3957 32.1096 53.3449C32.3892 53.2857 32.6644 53.4465 32.7275 53.7047C32.7907 53.963 32.6193 54.2254 32.3441 54.2847C32.1186 54.3312 31.8976 54.3778 31.6721 54.4244C31.636 54.4328 31.5999 54.4328 31.5683 54.4328L31.5638 54.4371Z" fill="#7D4DBA"/>
<path d="M39.4438 4.23732C39.3626 4.23732 39.2769 4.22039 39.2002 4.17806C39.0063 4.07647 38.8078 3.97911 38.6094 3.88598C38.3568 3.76322 38.2576 3.47114 38.3884 3.23409C38.5192 2.99704 38.8304 2.90391 39.083 3.02667C39.2859 3.12403 39.4889 3.22562 39.6919 3.33145C39.9399 3.45844 40.0347 3.75052 39.8994 3.98757C39.8046 4.14843 39.6287 4.24156 39.4483 4.24156L39.4438 4.23732Z" fill="#7D4DBA"/>
<path d="M52.8759 19.0573C52.664 19.0573 52.4655 18.9345 52.3888 18.7355C52.2445 18.3503 52.0911 17.9651 51.9288 17.5926C51.8205 17.3471 51.9513 17.0635 52.2129 16.9661C52.4745 16.8645 52.7767 16.9873 52.8805 17.2328C53.0473 17.6223 53.2052 18.0202 53.354 18.4181C53.4488 18.6678 53.3044 18.943 53.0383 19.0319C52.9842 19.0488 52.9256 19.0573 52.8669 19.0573H52.8759ZM51.8882 16.7502C51.6942 16.7502 51.5048 16.6444 51.4191 16.4666C51.2387 16.0984 51.0492 15.7258 50.8508 15.366C50.72 15.129 50.8192 14.8369 51.0718 14.7142C51.3244 14.5914 51.6356 14.6845 51.7664 14.9216C51.9694 15.2941 52.1678 15.6751 52.3572 16.0603C52.4745 16.3015 52.3572 16.5894 52.1047 16.6995C52.037 16.7291 51.9603 16.7418 51.8927 16.7418L51.8882 16.7502ZM50.6749 14.5406C50.4945 14.5406 50.3231 14.4517 50.2283 14.2993C50.0164 13.9522 49.7908 13.6009 49.5563 13.2537C49.4029 13.0294 49.4751 12.7289 49.7142 12.5892C49.9532 12.4452 50.2734 12.513 50.4223 12.7373C50.6658 13.0929 50.9004 13.4569 51.1214 13.821C51.2612 14.0538 51.1755 14.3459 50.932 14.4813C50.8508 14.5237 50.7651 14.5448 50.6749 14.5448V14.5406ZM49.2496 12.4452C49.0872 12.4452 48.9293 12.3733 48.8301 12.2421C48.582 11.9119 48.3204 11.5817 48.0588 11.26C47.8829 11.0483 47.928 10.7478 48.149 10.5827C48.3746 10.4176 48.6948 10.4599 48.8707 10.6674C49.1458 10.9975 49.4165 11.3404 49.6736 11.6875C49.8359 11.9034 49.7818 12.2082 49.5473 12.3606C49.4571 12.4198 49.3533 12.4495 49.2496 12.4495V12.4452ZM47.6258 10.4811C47.4815 10.4811 47.3372 10.4218 47.2334 10.3118C46.9583 10.007 46.6651 9.70222 46.3674 9.40168C46.1735 9.20696 46.187 8.90218 46.3945 8.72016C46.602 8.53814 46.9267 8.5466 47.1207 8.74555C47.4319 9.05457 47.7296 9.37628 48.0182 9.68952C48.2032 9.89271 48.1761 10.1975 47.9596 10.371C47.8649 10.4472 47.7431 10.4853 47.6258 10.4853V10.4811ZM45.8172 8.66513C45.6864 8.66513 45.5556 8.61856 45.4563 8.52544C45.1496 8.24182 44.8294 7.96244 44.5046 7.69153C44.2927 7.51374 44.2746 7.20896 44.4641 7.01001C44.6535 6.81105 44.9782 6.79412 45.1902 6.97191C45.524 7.25129 45.8578 7.54337 46.178 7.83545C46.381 8.0217 46.3855 8.32648 46.187 8.51697C46.0878 8.61433 45.9525 8.66089 45.8172 8.66089V8.66513ZM43.8371 7.01001C43.7243 7.01001 43.6071 6.97614 43.5124 6.89995C43.1831 6.64596 42.8358 6.39621 42.484 6.1507C42.254 5.99407 42.2089 5.68929 42.3757 5.47764C42.5426 5.26176 42.8674 5.21943 43.0929 5.37605C43.4582 5.63003 43.8146 5.88825 44.1573 6.1507C44.3784 6.32002 44.4099 6.6248 44.2295 6.82798C44.1258 6.94651 43.9814 7.00577 43.8326 7.00577L43.8371 7.01001ZM41.7082 5.53267C41.609 5.53267 41.5097 5.50727 41.424 5.45224C41.0677 5.22789 40.6979 5.00777 40.328 4.79612C40.0845 4.65643 40.0078 4.36012 40.1566 4.13153C40.3055 3.90295 40.6212 3.83099 40.8648 3.97068C41.2481 4.1908 41.6315 4.41938 42.0014 4.6522C42.2359 4.80035 42.2991 5.1009 42.1412 5.32102C42.042 5.46071 41.8796 5.53267 41.7127 5.53267H41.7082Z" fill="#7D4DBA"/>
<path d="M53.4707 20.8521C53.2452 20.8521 53.0377 20.7124 52.9746 20.4965C52.916 20.2976 52.8573 20.0944 52.7942 19.8997C52.713 19.6457 52.8664 19.3748 53.137 19.2986C53.4076 19.2224 53.6963 19.3663 53.7775 19.6203C53.8451 19.8277 53.9083 20.0351 53.9669 20.2426C54.0436 20.5008 53.8812 20.7632 53.6061 20.8352C53.561 20.8479 53.5159 20.8521 53.4707 20.8521Z" fill="#7D4DBA"/>
<path d="M3.28341 11.0271C3.17065 11.0271 3.05789 10.9932 2.95866 10.9213C2.73765 10.752 2.70157 10.4514 2.88198 10.244C3.02632 10.0747 3.17065 9.90958 3.31949 9.7445C3.50442 9.54131 3.82917 9.51591 4.04567 9.68947C4.26217 9.86302 4.28923 10.1678 4.1043 10.371C3.95997 10.5318 3.82015 10.6885 3.68032 10.8536C3.57658 10.9721 3.43225 11.0313 3.2789 11.0313L3.28341 11.0271Z" fill="#7D4DBA"/>
<path d="M4.56447 9.63866C4.43818 9.63866 4.3164 9.59633 4.21717 9.51167C4.00969 9.32964 3.99616 9.02487 4.19011 8.83015C4.48328 8.5296 4.78548 8.23752 5.09669 7.94967C5.29966 7.76342 5.62441 7.76342 5.82287 7.94967C6.02133 8.14016 6.02133 8.44494 5.82287 8.63119C5.52518 8.90634 5.23201 9.18995 4.94785 9.4778C4.84862 9.57939 4.7088 9.63442 4.56898 9.63442L4.56447 9.63866ZM6.38667 7.94967C6.24685 7.94967 6.10702 7.89464 6.00328 7.78882C5.81385 7.58986 5.82738 7.28508 6.03937 7.1073C6.35961 6.83215 6.68886 6.56546 7.02263 6.30725C7.24364 6.13793 7.56388 6.16756 7.74881 6.37074C7.92922 6.57393 7.89765 6.87871 7.68115 7.05227C7.3564 7.30202 7.04068 7.56023 6.72946 7.82691C6.63023 7.91157 6.50845 7.94967 6.38216 7.94967H6.38667ZM8.35771 6.41731C8.19985 6.41731 8.04649 6.34958 7.94727 6.22682C7.77587 6.01517 7.82097 5.71039 8.04649 5.54953C8.3938 5.30402 8.74561 5.06697 9.10193 4.83415C9.33647 4.68176 9.65671 4.73679 9.81908 4.95691C9.98145 5.17703 9.92282 5.47757 9.68828 5.62996C9.34098 5.85431 9.0027 6.0829 8.66893 6.31995C8.57421 6.38768 8.46596 6.41731 8.35771 6.41731ZM10.4686 5.05427C10.2972 5.05427 10.1303 4.97384 10.0311 4.82568C9.88223 4.60133 9.95439 4.30078 10.1934 4.16109C10.5633 3.94521 10.9331 3.73779 11.312 3.5346C11.5601 3.40338 11.8713 3.48804 12.0111 3.71662C12.151 3.94944 12.0653 4.24152 11.8172 4.37275C11.4518 4.56747 11.091 4.76642 10.7347 4.97384C10.649 5.02464 10.5543 5.0458 10.4641 5.0458L10.4686 5.05427ZM12.6967 3.87325C12.5073 3.87325 12.3269 3.77589 12.2367 3.6108C12.1059 3.37375 12.2096 3.08167 12.4622 2.96314C12.8501 2.78112 13.2425 2.60333 13.6349 2.43401C13.892 2.32395 14.1987 2.43401 14.3159 2.6753C14.4332 2.91658 14.3159 3.20443 14.0589 3.31449C13.6755 3.47534 13.3011 3.64466 12.9267 3.82245C12.8501 3.85631 12.7734 3.87325 12.6967 3.87325ZM15.0286 2.88271C14.8256 2.88271 14.6317 2.76842 14.5505 2.57793C14.4467 2.33242 14.573 2.0488 14.8392 1.95144C15.2406 1.79905 15.6465 1.65936 16.0615 1.52391C16.3321 1.43501 16.6208 1.57047 16.7155 1.82022C16.8102 2.06997 16.6659 2.34512 16.3997 2.43401C16.0028 2.56524 15.6104 2.70069 15.2225 2.84885C15.1594 2.87425 15.0962 2.88271 15.0331 2.88271H15.0286ZM17.4462 2.09113C17.2252 2.09113 17.0177 1.95568 16.9545 1.74826C16.8733 1.49427 17.0267 1.22336 17.3018 1.14717C17.7168 1.03287 18.1363 0.922814 18.5602 0.825454C18.8354 0.761958 19.115 0.918581 19.1827 1.1768C19.2503 1.43501 19.0834 1.69746 18.8083 1.76096C18.4024 1.85832 17.9964 1.95991 17.595 2.0742C17.5454 2.0869 17.4958 2.09537 17.4462 2.09537V2.09113ZM19.9269 1.50697C19.6878 1.50697 19.4713 1.35035 19.4217 1.12177C19.3631 0.859318 19.5435 0.605335 19.8231 0.554539C20.2471 0.474111 20.6756 0.402149 21.1041 0.338653C21.3837 0.300556 21.6499 0.478344 21.6904 0.740793C21.7355 1.00324 21.5416 1.25299 21.262 1.29109C20.847 1.35035 20.4366 1.42231 20.0261 1.49851C19.99 1.50697 19.9585 1.50697 19.9224 1.50697H19.9269ZM22.4527 1.13447C22.1956 1.13447 21.9701 0.952445 21.943 0.706928C21.9115 0.440246 22.1144 0.203196 22.3986 0.173564C22.8271 0.127001 23.2601 0.0931365 23.6976 0.0635051C23.9862 0.0465729 24.2253 0.245526 24.2433 0.512208C24.2614 0.77889 24.0494 1.00747 23.7652 1.02441C23.3458 1.04981 22.9263 1.0879 22.5113 1.13023C22.4933 1.13023 22.4707 1.13023 22.4527 1.13023V1.13447Z" fill="#7D4DBA"/>
<path d="M25.0193 0.973601C24.7397 0.973601 24.5142 0.766181 24.5051 0.503733C24.5006 0.237051 24.7216 0.0169322 25.0058 0.00846609C25.2358 0.00423305 25.4658 0 25.6959 0C25.98 0 26.2101 0.215885 26.2101 0.482567C26.2101 0.749249 25.98 0.965135 25.6959 0.965135C25.4749 0.965135 25.2539 0.965135 25.0328 0.973601C25.0328 0.973601 25.0238 0.973601 25.0193 0.973601Z" fill="#7D4DBA"/>
</svg>
