<svg width="55" height="55" viewBox="0 0 55 55" fill="none" xmlns="http://www.w3.org/2000/svg">
<rect width="55" height="55" fill="#1E1E1E"/>
<g id="4">
<rect width="1440" height="3852" transform="translate(-442 -553)" fill="white"/>
<g id="Group 1272">
<path id="Vector" d="M27.7584 51.6048C23.6012 51.6048 19.4991 50.5295 15.9007 48.4933C15.6975 48.379 15.6256 48.1207 15.7399 47.9175C15.8542 47.7143 16.1124 47.6424 16.3156 47.7567C19.787 49.7209 23.7452 50.7581 27.7584 50.7581C32.4448 50.7581 36.9575 49.3738 40.8184 46.7491C41.0131 46.6179 41.2756 46.6687 41.4068 46.8634C41.538 47.0582 41.4872 47.3206 41.2925 47.4519C37.292 50.1697 32.6099 51.6048 27.7584 51.6048Z" fill="#7D4DBA"/>
<path id="Vector_2" d="M10.4102 49.0436C10.2409 48.9081 10.0716 48.7727 9.91069 48.6372C9.70749 48.4679 9.67785 48.1631 9.84719 47.9556C10.0165 47.7524 10.3129 47.7228 10.5161 47.8879C10.5161 47.8879 10.5203 47.8921 10.5245 47.8964C10.6854 48.0276 10.8463 48.1588 11.0071 48.2901C11.2146 48.4552 11.2527 48.76 11.0876 48.9674C10.9225 49.1748 10.6177 49.2129 10.4102 49.0436Z" fill="#7D4DBA"/>
<path id="Vector_3" d="M8.95839 47.8075C8.95839 47.8075 8.94146 47.7948 8.93299 47.7863C8.61549 47.4984 8.30222 47.1978 8.00165 46.893C7.81115 46.7025 7.81538 46.3977 8.00165 46.2115C8.19215 46.0252 8.49695 46.0252 8.68322 46.2115C8.97533 46.5036 9.28013 46.7957 9.58493 47.0751C9.77967 47.2529 9.7966 47.5619 9.61457 47.7566C9.441 47.9472 9.15736 47.9641 8.95839 47.8075ZM7.16768 46.0083C7.16768 46.0083 7.12958 45.9744 7.10841 45.9532C6.82054 45.6357 6.5369 45.3055 6.26173 44.9753C6.0924 44.7679 6.12203 44.4673 6.32523 44.2937C6.53267 44.1244 6.83747 44.154 7.00681 44.3573C7.26928 44.6748 7.54445 44.9923 7.82385 45.3013C8.00165 45.5003 7.98895 45.8051 7.78998 45.9829C7.61218 46.1437 7.34971 46.148 7.16768 46.004V46.0083ZM5.55476 44.0524C5.52089 44.027 5.49549 43.9974 5.47009 43.9635C5.21186 43.6206 4.96209 43.265 4.72079 42.9094C4.57262 42.6893 4.62765 42.3887 4.85202 42.2406C5.07215 42.0924 5.37273 42.1474 5.52089 42.3718C5.75373 42.7147 5.99503 43.0576 6.2448 43.3878C6.40567 43.5995 6.3591 43.9043 6.14743 44.0651C5.96963 44.2006 5.72409 44.1921 5.55899 44.0567L5.55476 44.0524ZM4.13235 41.9485C4.09001 41.9146 4.05191 41.8723 4.02228 41.8215C3.79791 41.4532 3.58201 41.0764 3.37457 40.7038C3.24757 40.471 3.33224 40.1747 3.56507 40.0477C3.79791 39.9207 4.09425 40.0053 4.22125 40.2382C4.42022 40.598 4.62765 40.9621 4.84355 41.3177C4.98325 41.5463 4.91129 41.8426 4.68268 41.9823C4.50488 42.0924 4.28475 42.0712 4.13235 41.9485ZM2.91313 39.7217C2.8581 39.6794 2.81153 39.6201 2.77767 39.5566C2.58716 39.1714 2.40936 38.7734 2.24003 38.3797C2.13419 38.1342 2.24849 37.8506 2.49403 37.7447C2.73957 37.6389 3.0232 37.7532 3.12904 37.9987C3.2899 38.3755 3.46771 38.7565 3.64974 39.1333C3.76828 39.3746 3.66667 39.6624 3.42537 39.7767C3.2518 39.8614 3.05284 39.8318 2.91313 39.7217ZM1.90982 37.3891C1.84209 37.3383 1.79129 37.2663 1.75742 37.1817C1.60502 36.7795 1.46532 36.3689 1.33409 35.9625C1.25365 35.7085 1.39335 35.4375 1.64736 35.3529C1.90136 35.2724 2.17229 35.4121 2.25696 35.6661C2.38396 36.0598 2.52366 36.4535 2.6676 36.843C2.76073 37.0928 2.63373 37.3722 2.38396 37.4653C2.21886 37.5288 2.04106 37.495 1.91406 37.3891H1.90982ZM1.13088 34.9761C1.05468 34.9126 0.995416 34.8279 0.965782 34.7263C0.851481 34.3115 0.74988 33.8881 0.656746 33.4732C0.597478 33.215 0.76258 32.9568 1.02505 32.8975C1.28329 32.8425 1.54152 33.0033 1.60079 33.2658C1.68969 33.668 1.79129 34.0744 1.90136 34.4766C1.96909 34.7348 1.82092 34.9973 1.56269 35.0692C1.41029 35.1116 1.25365 35.0692 1.13512 34.9803L1.13088 34.9761ZM0.580545 32.4996C0.491644 32.4276 0.42391 32.326 0.406976 32.2032C0.330776 31.7757 0.267275 31.3481 0.216475 30.9248C0.182608 30.6623 0.373109 30.421 0.635579 30.3871C0.898048 30.3532 1.14358 30.5437 1.17322 30.8062C1.22402 31.2126 1.28752 31.6275 1.35525 32.0381C1.40182 32.3006 1.22402 32.5504 0.961549 32.5969C0.821847 32.6223 0.682146 32.58 0.580545 32.4996ZM0.263042 29.9807C0.161441 29.9003 0.0937068 29.7817 0.0810066 29.642C0.0471397 29.2145 0.0217394 28.7827 0.00903928 28.3509C0.000572529 28.0842 0.208008 27.8598 0.47471 27.8513C0.741413 27.8429 0.965782 28.0503 0.974249 28.317C0.986949 28.7319 1.01235 29.151 1.04198 29.5616C1.06315 29.8283 0.864181 30.0611 0.597478 30.0823C0.470477 30.0908 0.351943 30.0527 0.258808 29.9807H0.263042Z" fill="#7D4DBA"/>
<path id="Vector_4" d="M0.182212 27.4449C0.0679111 27.356 -0.00405625 27.2163 0.000177123 27.0596C0.000177123 26.8437 0.00864387 26.6278 0.0171106 26.4119C0.0298107 26.1452 0.25418 25.9378 0.516649 25.9505C0.783351 25.9632 0.990787 26.1876 0.978087 26.4543C0.96962 26.6617 0.965386 26.8691 0.961153 27.0766C0.961153 27.3433 0.736784 27.555 0.470082 27.5507C0.360014 27.5507 0.258413 27.5084 0.177979 27.4449H0.182212Z" fill="#7D4DBA"/>
<g id="Group">
<path id="Vector_5" d="M47.968 45.1574L47.9595 45.1489C47.7563 44.9796 47.7267 44.6747 47.896 44.4673C48.0273 44.3064 48.1585 44.1456 48.2897 43.9805C48.4548 43.773 48.7596 43.7349 48.9671 43.9043C49.1745 44.0736 49.2126 44.3742 49.0475 44.5816C48.912 44.7509 48.7766 44.9161 48.6411 45.0812C48.4718 45.2844 48.1754 45.314 47.968 45.1531V45.1574Z" fill="#7D4DBA"/>
<path id="Vector_6" d="M16.7726 52.8071C16.6075 52.6758 16.544 52.4472 16.6286 52.244C16.7302 51.9985 17.0139 51.8842 17.2594 51.9858C17.6319 52.1424 18.0045 52.2864 18.3813 52.4261C18.631 52.5192 18.7623 52.7944 18.6691 53.0441C18.576 53.2939 18.3008 53.4251 18.0511 53.332C17.6616 53.1881 17.2679 53.0357 16.8869 52.8748C16.8445 52.8579 16.8064 52.8367 16.7726 52.8071ZM19.0798 53.6495C18.9274 53.531 18.8596 53.3235 18.9189 53.1246C18.9993 52.8706 19.2703 52.7309 19.5243 52.8071C19.9095 52.9298 20.2947 53.0399 20.6842 53.1415C20.9424 53.2092 21.0948 53.4759 21.0271 53.7299C20.9594 53.9882 20.6927 54.1406 20.4387 54.0728C20.0365 53.967 19.6386 53.8485 19.2406 53.7257C19.1814 53.7088 19.1306 53.6791 19.084 53.6453L19.0798 53.6495ZM21.4547 54.2803C21.315 54.1702 21.243 53.9839 21.2811 53.8019C21.3362 53.5394 21.5944 53.3743 21.8569 53.4336C22.2506 53.5183 22.6443 53.5945 23.0422 53.6622C23.3047 53.7088 23.4825 53.9543 23.4359 54.2168C23.3893 54.4793 23.1438 54.657 22.8813 54.6105C22.4707 54.5427 22.0601 54.4623 21.6537 54.3734C21.5775 54.3565 21.514 54.3226 21.4547 54.2803ZM23.8762 54.6909C23.7492 54.5893 23.6772 54.4284 23.6984 54.2549C23.7322 53.9882 23.9735 53.8019 24.236 53.8358C24.634 53.8866 25.0361 53.9247 25.4341 53.9543C25.7008 53.9755 25.8997 54.2083 25.8786 54.4708C25.8574 54.7375 25.6246 54.9365 25.3621 54.9153C24.9472 54.8814 24.5324 54.8433 24.1175 54.7925C24.0243 54.7798 23.9439 54.746 23.8762 54.6909ZM26.3231 54.8814C26.2088 54.7883 26.1368 54.6486 26.141 54.4877C26.1495 54.221 26.3739 54.0136 26.6363 54.022C27.0385 54.0347 27.4407 54.039 27.8428 54.0305C28.1096 54.0305 28.3297 54.2422 28.3339 54.5046C28.3339 54.7714 28.1223 54.9915 27.8598 54.9957C27.4449 55 27.0258 54.9957 26.6109 54.983C26.5051 54.983 26.4035 54.9407 26.3273 54.8772L26.3231 54.8814ZM28.7784 54.8476C28.6768 54.7671 28.6049 54.6401 28.5964 54.4962C28.5795 54.2295 28.7827 54.0009 29.0494 53.9839C29.4515 53.9585 29.8495 53.9289 30.2516 53.8866C30.5183 53.8569 30.7554 54.0517 30.7808 54.3184C30.8104 54.5851 30.6157 54.8222 30.349 54.8476C29.9341 54.8899 29.5193 54.9238 29.1044 54.9492C28.9816 54.9576 28.8673 54.9153 28.7742 54.8476H28.7784ZM31.2211 54.5936C31.1279 54.5216 31.0644 54.4115 31.0433 54.2887C31.0052 54.0263 31.1872 53.7807 31.4497 53.7384C31.8476 53.6791 32.2456 53.6114 32.6393 53.531C32.9017 53.4802 33.1557 53.6495 33.2065 53.912C33.2573 54.1744 33.088 54.4284 32.8255 54.4792C32.4149 54.5597 32.0043 54.6316 31.5936 54.6909C31.4581 54.7121 31.3227 54.674 31.2211 54.5936ZM33.6299 54.1194C33.5494 54.0559 33.4859 53.9628 33.4605 53.8569C33.397 53.5987 33.5537 53.3362 33.8161 53.2727C34.2056 53.1754 34.5951 53.0738 34.9803 52.9595C35.2343 52.8833 35.5053 53.0314 35.5772 53.2854C35.6534 53.5394 35.5053 53.8104 35.2513 53.8823C34.8533 54.0009 34.4469 54.1067 34.0447 54.2083C33.8923 54.2464 33.7442 54.2083 33.6299 54.1194ZM35.9879 53.4294C35.9201 53.3743 35.8609 53.2981 35.8312 53.2092C35.7466 52.9552 35.8778 52.6843 36.1318 52.5954C36.5128 52.4642 36.8896 52.3245 37.2621 52.1763C37.5119 52.0789 37.7913 52.2017 37.8886 52.4472C37.986 52.697 37.8632 52.9764 37.6177 53.0738C37.2282 53.2262 36.8388 53.3701 36.4451 53.5056C36.2842 53.5606 36.1149 53.5267 35.9879 53.4251V53.4294ZM38.2739 52.5277C38.2146 52.4811 38.1681 52.4218 38.1342 52.3456C38.0241 52.1001 38.1342 51.8165 38.3755 51.7064C38.7438 51.5413 39.1036 51.3677 39.4635 51.1899C39.7005 51.0714 39.9926 51.1645 40.1112 51.4058C40.2297 51.6429 40.1366 51.935 39.8953 52.0535C39.5185 52.244 39.1417 52.4218 38.765 52.5912C38.5956 52.6674 38.4051 52.6377 38.2654 52.5277H38.2739ZM40.4668 51.4228C40.4202 51.3847 40.3779 51.3381 40.3482 51.283C40.217 51.0502 40.2974 50.7581 40.5303 50.6269C40.8816 50.4279 41.2245 50.2247 41.5675 50.0088C41.7918 49.8691 42.0924 49.9368 42.2321 50.1612C42.3718 50.3856 42.3041 50.6861 42.0797 50.8258C41.7241 51.046 41.3685 51.2619 41.0044 51.4651C40.8266 51.5625 40.6149 51.5413 40.4668 51.4228ZM42.5496 50.1231C42.5115 50.0935 42.4819 50.0596 42.4522 50.0173C42.2998 49.7971 42.3549 49.4966 42.575 49.3442C42.9052 49.1156 43.2312 48.8785 43.5529 48.6372C43.7646 48.4763 44.0694 48.5187 44.2302 48.7303C44.3911 48.942 44.3488 49.2468 44.1371 49.4077C43.8069 49.6617 43.464 49.9072 43.1253 50.14C42.9475 50.2628 42.7147 50.2501 42.5496 50.1231ZM44.5054 48.6372C44.48 48.616 44.4546 48.5949 44.4334 48.5695C44.2641 48.3663 44.2895 48.0615 44.4927 47.8879C44.8017 47.6296 45.1023 47.3672 45.3987 47.092C45.5934 46.91 45.9024 46.9227 46.0802 47.1216C46.2623 47.3164 46.2453 47.6254 46.0506 47.8032C45.7458 48.0826 45.4283 48.3578 45.1108 48.6245C44.933 48.7727 44.679 48.7727 44.5012 48.633L44.5054 48.6372ZM46.3173 46.9777C46.3173 46.9777 46.2877 46.9523 46.275 46.9396C46.0845 46.7533 46.0845 46.4443 46.275 46.258C46.5586 45.9744 46.8338 45.6823 47.1089 45.386C47.2867 45.187 47.5915 45.1785 47.7905 45.3563C47.9895 45.5341 48.0022 45.8432 47.8201 46.0379C47.5407 46.3469 47.2486 46.6517 46.9565 46.9438C46.783 47.1174 46.5036 47.1301 46.3173 46.9819V46.9777Z" fill="#7D4DBA"/>
<path id="Vector_7" d="M15.0708 52.0238C14.8972 51.8841 14.8337 51.6386 14.9395 51.4269C15.0581 51.1899 15.3502 51.0925 15.5872 51.211C15.7735 51.3042 15.9598 51.3973 16.146 51.4862C16.3873 51.6005 16.4889 51.8884 16.3746 52.1297C16.2603 52.371 15.9725 52.4726 15.7312 52.3583C15.5364 52.2651 15.3417 52.172 15.1512 52.0746C15.1216 52.0577 15.0919 52.0408 15.0665 52.0196L15.0708 52.0238Z" fill="#7D4DBA"/>
</g>
<g id="Group_2">
<path id="Vector_8" d="M52.0622 17.2891C52.003 17.2426 51.9521 17.1748 51.9183 17.0986C51.8378 16.9081 51.7532 16.7176 51.6685 16.5271C51.5584 16.2858 51.6685 15.9979 51.9098 15.8879C52.1511 15.7778 52.439 15.8879 52.5491 16.1292C52.638 16.3239 52.7269 16.5229 52.8073 16.7218C52.9131 16.9674 52.7988 17.251 52.5533 17.3569C52.384 17.4288 52.1977 17.395 52.0664 17.2891H52.0622Z" fill="#7D4DBA"/>
<path id="Vector_9" d="M52.7311 36.733C52.5745 36.6103 52.5067 36.3944 52.5745 36.1954C52.7099 35.8101 52.8327 35.4207 52.947 35.0312C53.0232 34.7772 53.2899 34.629 53.5481 34.7052C53.8021 34.7814 53.9503 35.0481 53.8741 35.3064C53.7556 35.7085 53.6243 36.1149 53.4889 36.5129C53.4 36.7627 53.1248 36.8981 52.875 36.8092C52.8242 36.7923 52.7734 36.7627 52.7311 36.733ZM53.4381 34.3496C53.2941 34.2353 53.2222 34.0448 53.2687 33.8543C53.3661 33.4606 53.455 33.0585 53.5354 32.6605C53.5862 32.398 53.8402 32.2287 54.1027 32.2795C54.3652 32.3303 54.5345 32.5843 54.4837 32.8468C54.4033 33.2574 54.3101 33.6723 54.2085 34.0829C54.145 34.3412 53.8826 34.502 53.6243 34.4343C53.5566 34.4174 53.4931 34.3877 53.4381 34.3454V34.3496ZM53.9207 31.9112C53.7894 31.8054 53.7175 31.636 53.7429 31.4625C53.8021 31.0645 53.8529 30.6581 53.8953 30.2517C53.9207 29.985 54.1577 29.7945 54.4244 29.8199C54.6911 29.8453 54.8817 30.0824 54.8563 30.3491C54.8139 30.7682 54.7589 31.1915 54.6954 31.6064C54.6573 31.8689 54.4075 32.0509 54.145 32.0128C54.0604 32.0001 53.9799 31.9662 53.9164 31.9154L53.9207 31.9112ZM54.1747 29.4389C54.0561 29.3458 53.9842 29.1976 53.9926 29.0325C54.0138 28.6261 54.0307 28.2155 54.035 27.8133C54.035 27.5466 54.2551 27.3349 54.5218 27.3349C54.7885 27.3349 55.0002 27.5551 55.0002 27.8218C54.996 28.2409 54.979 28.6684 54.9579 29.0875C54.9409 29.3542 54.7123 29.5574 54.4498 29.5405C54.3482 29.5363 54.2509 29.4982 54.1789 29.4389H54.1747ZM54.2043 26.9539C54.0985 26.8693 54.0265 26.738 54.0223 26.5899C54.0096 26.1919 53.9842 25.7813 53.9503 25.3706C53.9291 25.1039 54.1281 24.8711 54.3906 24.8499C54.6573 24.8288 54.8901 25.0277 54.9113 25.2944C54.9452 25.7178 54.9706 26.1454 54.9833 26.5602C54.9917 26.8269 54.7843 27.0513 54.5176 27.0598C54.399 27.064 54.289 27.0259 54.2001 26.9539H54.2043ZM54.0053 24.4732C53.908 24.397 53.8445 24.2869 53.8275 24.1557C53.7767 23.7535 53.7175 23.3471 53.6455 22.9492C53.5989 22.6867 53.7767 22.4369 54.0392 22.3903C54.3017 22.3438 54.5514 22.5216 54.598 22.7841C54.67 23.1989 54.7335 23.618 54.7843 24.0371C54.8182 24.2996 54.6319 24.5451 54.3652 24.5748C54.2297 24.5917 54.1027 24.5536 54.0053 24.4732ZM53.5778 22.022C53.4931 21.9543 53.4296 21.8612 53.4084 21.7469C53.3238 21.3574 53.2264 20.9552 53.1163 20.5615C53.0486 20.3033 53.201 20.0408 53.455 19.9689C53.7132 19.9011 53.9757 20.0493 54.0477 20.3075C54.1577 20.7182 54.2593 21.133 54.3482 21.5394C54.4075 21.7977 54.2424 22.0559 53.9799 22.1152C53.8318 22.149 53.6878 22.1067 53.5778 22.022ZM52.9301 19.6217C52.8581 19.5625 52.7988 19.4863 52.7692 19.3889C52.6464 19.0036 52.511 18.6184 52.3713 18.2332C52.2781 17.9834 52.4051 17.704 52.6549 17.6109C52.9047 17.5177 53.1841 17.6447 53.2772 17.8945C53.4254 18.2924 53.5651 18.6946 53.6921 19.0925C53.7725 19.3466 53.6328 19.6175 53.3788 19.6979C53.2179 19.7487 53.0528 19.7106 52.9301 19.6175V19.6217Z" fill="#7D4DBA"/>
<path id="Vector_10" d="M52.054 38.4899C51.8889 38.3587 51.8212 38.1258 51.9101 37.9226C51.9905 37.7321 52.071 37.5416 52.1472 37.3469C52.2445 37.0971 52.5282 36.9786 52.7737 37.076C53.0193 37.1733 53.142 37.457 53.0447 37.7025C52.9642 37.9015 52.8838 38.1004 52.7991 38.2994C52.6933 38.5449 52.4096 38.6592 52.1641 38.5534C52.1218 38.5365 52.0879 38.5153 52.054 38.4857V38.4899Z" fill="#7D4DBA"/>
</g>
<g id="Group_3">
<path id="Vector_11" d="M21.2562 1.51556C21.1716 1.44783 21.1123 1.35469 21.0869 1.24463C21.0276 0.98639 21.1927 0.728154 21.451 0.668887C21.6626 0.62232 21.8701 0.575753 22.0817 0.533419C22.3442 0.482619 22.5982 0.651954 22.649 0.91019C22.6998 1.17266 22.5305 1.42666 22.2722 1.47746C22.069 1.5198 21.8658 1.56213 21.6626 1.6087C21.5145 1.64256 21.3663 1.60446 21.2562 1.51556Z" fill="#7D4DBA"/>
<path id="Vector_12" d="M23.0594 1.17692C22.9663 1.10495 22.9028 0.999117 22.8816 0.872116C22.8393 0.609646 23.0213 0.364111 23.2838 0.321777C23.6859 0.258276 24.0924 0.207476 24.4945 0.160909C24.7612 0.131275 24.9983 0.321777 25.0279 0.588479C25.0576 0.855182 24.8671 1.09225 24.6004 1.12188C24.2109 1.16422 23.8172 1.21502 23.4319 1.27852C23.2922 1.29969 23.161 1.26159 23.0594 1.18115V1.17692ZM25.447 0.914449C25.3454 0.834015 25.2735 0.711247 25.265 0.567313C25.2481 0.30061 25.4513 0.0720077 25.7137 0.0550742C26.1201 0.029674 26.5265 0.0127405 26.9372 0.00427374C27.2039 4.03658e-05 27.424 0.211709 27.4283 0.478412C27.4325 0.745114 27.2208 0.96525 26.9541 0.969483C26.5604 0.97795 26.1667 0.994883 25.773 1.02028C25.6502 1.02875 25.5317 0.99065 25.4428 0.918683L25.447 0.914449ZM27.8516 0.863649C27.7373 0.774748 27.6653 0.630813 27.6696 0.474178C27.678 0.207476 27.8982 -0.00419301 28.1649 0.00427374C28.5713 0.0127405 28.9777 0.0339074 29.3883 0.0593076C29.655 0.0762411 29.854 0.309077 29.837 0.571546C29.8201 0.838249 29.5873 1.03722 29.3248 1.02028C28.9311 0.994883 28.5374 0.973717 28.1437 0.96525C28.0336 0.96525 27.9363 0.922916 27.8558 0.859415L27.8516 0.863649ZM30.2477 1.02452C30.1207 0.922916 30.0487 0.762048 30.0656 0.592713C30.0953 0.32601 30.3323 0.135508 30.599 0.165142C31.0055 0.211709 31.4076 0.266743 31.8098 0.330244C32.0723 0.372577 32.2543 0.618113 32.212 0.880582C32.1696 1.14305 31.9241 1.32509 31.6616 1.28275C31.2722 1.21925 30.8827 1.16845 30.4932 1.12612C30.4001 1.11765 30.3154 1.07955 30.2477 1.02452ZM32.6226 1.40129C32.4829 1.29122 32.4109 1.10918 32.449 0.927149C32.5041 0.66468 32.7581 0.495345 33.0163 0.550379C33.4142 0.630813 33.8122 0.723947 34.2101 0.821315C34.4684 0.884816 34.625 1.14728 34.5615 1.40552C34.498 1.66376 34.2355 1.82039 33.9773 1.75689C33.5963 1.65952 33.211 1.57486 32.8258 1.49442C32.7496 1.47749 32.6819 1.44362 32.6226 1.40129ZM34.951 1.98549C34.8028 1.86696 34.7308 1.66376 34.7901 1.46902C34.8663 1.21502 35.1372 1.06685 35.3912 1.14305C35.7807 1.26159 36.1702 1.38435 36.5554 1.51982C36.8094 1.60872 36.9406 1.88389 36.8517 2.13366C36.7628 2.38766 36.4877 2.5189 36.2379 2.43C35.8654 2.29876 35.4928 2.18023 35.1161 2.06593C35.0568 2.04899 35.0018 2.01936 34.9552 1.98126L34.951 1.98549ZM37.22 2.77713C37.0592 2.6459 36.9914 2.42153 37.0719 2.21833C37.1692 1.97279 37.4529 1.85002 37.6984 1.94739C38.0752 2.09979 38.452 2.25643 38.8245 2.42576C39.0658 2.53583 39.1759 2.8237 39.0658 3.065C38.9557 3.30631 38.6679 3.41637 38.4266 3.30631C38.0667 3.14544 37.7069 2.9888 37.3428 2.84487C37.3005 2.82793 37.2581 2.80253 37.22 2.7729V2.77713ZM39.4087 3.76774C39.2309 3.62804 39.1716 3.37827 39.2775 3.17084C39.396 2.93377 39.6881 2.8364 39.9252 2.95917C40.2892 3.1412 40.6448 3.33594 41.0047 3.53914C41.2375 3.67038 41.318 3.96671 41.1867 4.19531C41.0555 4.42815 40.7591 4.50858 40.5305 4.37735C40.1876 4.18261 39.8405 3.99635 39.4891 3.81854C39.4595 3.80161 39.4341 3.78468 39.4087 3.76774ZM41.5 4.94885C41.3095 4.79645 41.2587 4.52552 41.3899 4.31385C41.5296 4.08948 41.8302 4.01751 42.0546 4.16145C42.3975 4.37735 42.7404 4.60172 43.0748 4.83455C43.2992 4.99119 43.35 5.28753 43.1976 5.50766C43.0452 5.7278 42.7446 5.78283 42.5245 5.63043C42.1985 5.40606 41.8683 5.19016 41.5381 4.98272C41.5212 4.97426 41.5085 4.96156 41.4958 4.95309L41.5 4.94885Z" fill="#7D4DBA"/>
<path id="Vector_13" d="M43.4857 6.31616C43.2825 6.15529 43.2444 5.85895 43.401 5.64728C43.5619 5.43561 43.8625 5.39328 44.0784 5.55415C44.2477 5.68538 44.4213 5.81662 44.5906 5.94785C44.798 6.11295 44.8361 6.41776 44.671 6.62519C44.5059 6.83263 44.2011 6.87073 43.9937 6.70139C43.8286 6.57016 43.6677 6.44316 43.4984 6.32039C43.4984 6.32039 43.4942 6.31616 43.4899 6.31192L43.4857 6.31616Z" fill="#7D4DBA"/>
</g>
<path id="Vector_14" d="M40.8397 24.4435C41.9192 23.5079 42.5796 21.823 41.6186 20.1678C41.1995 19.4481 40.5941 18.9189 39.7686 18.5549C39.4935 18.4321 39.4046 18.2331 39.4977 17.9495C39.6755 17.4119 39.7221 16.8404 39.6374 16.2435C39.3622 14.2792 38.3039 12.806 36.4962 11.8534C35.1035 11.1211 33.5879 10.9263 31.9919 11.265C31.7125 11.3243 31.5263 11.2396 31.3696 10.9898C31.0098 10.4099 30.6457 10.0204 30.2181 9.76216C29.2445 9.17372 28.2877 8.94935 27.3013 9.08058C25.9594 9.25838 24.9391 9.91456 24.266 11.0279C24.1263 11.2565 23.9612 11.3285 23.703 11.2735C22.8436 11.0872 22.0943 11.0491 21.4043 11.1592C19.6474 11.4428 18.3266 12.1286 17.3614 13.2589C16.7687 13.9532 16.3792 14.6517 16.1676 15.3968C15.9051 16.3281 15.9093 17.179 16.176 18.0003C16.2522 18.2374 16.176 18.4236 15.9517 18.521C15.812 18.5845 15.6765 18.6522 15.541 18.7242C14.398 19.3423 13.6868 20.3625 13.581 21.5352C13.4794 22.6782 13.9831 23.7831 14.9653 24.562C15.6892 25.1378 16.5316 25.4426 17.463 25.468C17.8821 25.4807 17.9795 25.7516 18.0133 25.959C18.1361 26.6576 18.3562 27.2418 18.6907 27.7455C20.0538 29.7987 22.035 30.7385 24.7486 30.6327C24.8248 30.6327 24.9688 30.6242 25.0746 30.7258C25.1762 30.8274 25.1762 30.9671 25.1762 31.0095C25.1762 31.7249 25.1762 32.4403 25.1762 33.1812V34.2734L24.7486 34.0236C24.6809 33.9855 24.6216 33.9517 24.5666 33.9178C23.9824 33.5326 23.3728 33.1642 22.7843 32.8086C22.488 32.6266 22.1874 32.4488 21.8911 32.2668C21.8826 32.2625 21.8784 32.2583 21.8699 32.2541C21.8699 32.2541 21.8699 32.2541 21.8699 32.2583C21.7514 32.4657 21.6244 32.6689 21.4932 32.8721L21.3789 33.0542C21.3789 33.0542 21.3492 33.105 21.3323 33.1346C21.3619 33.1515 21.3916 33.1727 21.4085 33.1812L22.3229 33.7358C23.178 34.2565 24.0332 34.7772 24.8926 35.2936C25.1 35.4164 25.1889 35.5857 25.1847 35.8228C25.1804 35.9964 25.1847 36.1699 25.1847 36.3435C25.1847 36.551 25.1847 36.7542 25.1804 36.9616C25.1254 38.4221 24.4862 39.5863 23.2839 40.4203C22.6616 40.8521 21.9207 41.0934 21.0868 41.1399C21.0741 41.1399 21.0614 41.1399 21.0529 41.1399C21.0529 41.1484 21.0529 41.1611 21.0529 41.178C21.0614 41.3008 21.0614 41.4278 21.0614 41.5548V41.6945C21.0614 41.8977 21.0614 42.1305 21.091 42.1771C21.1291 42.1898 21.3831 42.1475 21.5313 42.1263C23.0722 41.8977 24.2872 41.195 25.1466 40.0435C25.8535 39.091 26.2134 37.9818 26.2134 36.7415C26.2134 34.7518 26.2134 32.7621 26.2134 30.7724C26.2134 30.5819 26.2515 30.3194 26.6155 30.2094C26.9034 30.1205 27.204 29.9808 27.5342 29.7818C27.64 29.7183 27.7416 29.6886 27.8432 29.6886C27.9448 29.6886 28.0464 29.7225 28.148 29.786C28.4232 29.9596 28.7322 30.1035 29.0667 30.2221C29.418 30.3448 29.4646 30.5988 29.4604 30.8063C29.4519 32.6393 29.4561 34.4681 29.4604 36.3012V36.5637C29.4604 36.8727 29.4604 37.1394 29.4985 37.4103C29.7355 39.1714 30.6118 40.5303 32.0978 41.449C32.8555 41.9189 33.6895 42.1686 34.5701 42.1898C34.587 42.1898 34.6039 42.1898 34.6124 42.1898C34.6124 42.1813 34.6124 42.1686 34.6124 42.1517C34.6039 42.0205 34.6082 41.8892 34.6124 41.7538C34.6124 41.6691 34.6124 41.5887 34.6124 41.504C34.6124 41.4193 34.6124 41.3516 34.6124 41.2881C34.6124 41.2415 34.6124 41.1907 34.6124 41.1569C34.5785 41.1526 34.5319 41.1442 34.4896 41.1399C34.4261 41.1315 34.3499 41.123 34.2568 41.1061C32.5296 40.8267 31.3442 39.8572 30.7346 38.2274C30.4764 37.5373 30.4848 36.8304 30.4891 36.1445V35.8355C30.4891 35.5984 30.6584 35.4968 30.7473 35.4418L31.9919 34.6756C32.8301 34.1591 33.6683 33.6469 34.5065 33.1346C34.515 33.1346 34.5193 33.1261 34.5235 33.1219C34.5235 33.1177 34.5192 33.1134 34.515 33.1092C34.3033 32.7832 34.1467 32.5292 34.0112 32.2879C34.0028 32.2752 33.9985 32.2625 33.9901 32.2541C33.9774 32.2583 33.9562 32.271 33.9266 32.2879C33.2916 32.6562 32.665 33.0542 32.0554 33.4437C31.7083 33.6638 31.3654 33.8839 31.014 34.0998C30.9378 34.1464 30.7854 34.2395 30.633 34.1549C30.4806 34.0702 30.4848 33.8882 30.4848 33.7993C30.4891 33.1812 30.4848 32.5673 30.4848 31.9493V31.2889C30.4848 31.0264 30.4848 30.8698 30.6034 30.7555C30.7219 30.6412 30.8828 30.6454 31.1283 30.6581C32.4322 30.7131 33.6683 30.4253 34.7987 29.7987C36.4116 28.9055 37.3387 27.6651 37.6435 26.0141C37.7281 25.5526 37.8171 25.4722 38.2827 25.4595C39.2352 25.4341 40.0946 25.0912 40.8439 24.4393L40.8397 24.4435ZM36.7968 24.2657L36.7545 24.2572C36.7206 24.2488 36.691 24.2445 36.6698 24.2361C36.6698 24.2657 36.674 24.2996 36.6783 24.3377C36.7629 25.1547 36.6783 25.8828 36.42 26.556C36.2295 27.0513 35.9501 27.5 35.5861 27.881C34.6208 28.9012 33.427 29.4812 32.0385 29.6082C30.506 29.7437 29.1471 29.3627 27.9999 28.4694C27.9406 28.4229 27.8517 28.3551 27.8263 28.3467C27.8263 28.3551 27.7459 28.4144 27.6697 28.4694C26.6071 29.2526 25.4852 29.6463 24.3295 29.6463C24.2279 29.6463 24.1221 29.6463 24.0205 29.6378C21.9504 29.5108 20.4221 28.6388 19.4781 27.047C19.059 26.34 18.8939 25.5188 18.9785 24.5409C18.987 24.4223 18.9997 24.3165 18.9997 24.2488C18.932 24.2615 18.8304 24.2826 18.7288 24.3038C18.0768 24.452 17.2217 24.5705 16.3665 24.2234C15.5453 23.8847 14.9949 23.3174 14.7325 22.53C14.4234 21.6029 14.7706 20.57 15.6215 19.9011C16.0998 19.5243 16.6671 19.3084 17.4545 19.211C17.5392 19.2026 17.6196 19.1899 17.7043 19.1772C17.7212 19.1772 17.7424 19.1729 17.7593 19.1687C17.7509 19.1475 17.7382 19.1306 17.7297 19.1137C17.4291 18.5506 17.137 17.9283 17.0523 17.2256C16.9169 16.1249 17.209 15.1174 17.9202 14.2368C19.1775 12.6832 20.8539 11.9931 22.8986 12.1836C23.5125 12.2429 24.084 12.4334 24.664 12.6409C24.6936 12.6493 24.7317 12.6663 24.7613 12.6747C24.7698 12.6366 24.7783 12.5943 24.7825 12.5731C24.918 11.8577 25.227 11.2989 25.7223 10.8713C26.4293 10.2575 27.3775 9.99076 28.3343 10.1389C29.2487 10.2786 30.0403 10.7909 30.4975 11.5359C30.6923 11.8534 30.7812 12.2048 30.8659 12.5392L30.887 12.6154C30.887 12.6154 30.8955 12.6493 30.9039 12.6747C30.9251 12.6663 30.9463 12.6578 30.959 12.6535C32.3772 12.0905 33.6895 11.9931 34.968 12.353C36.293 12.7298 37.309 13.4706 37.9864 14.5628C38.778 15.837 38.8373 17.2087 38.1557 18.6311C38.1007 18.7454 38.0457 18.8597 37.9864 18.974L37.8848 19.1772C37.8848 19.1772 37.889 19.1772 37.8933 19.1772C38.0076 19.1983 38.1261 19.2153 38.2446 19.228C38.5198 19.2661 38.8077 19.3042 39.0913 19.4058C40.0988 19.7656 40.7042 20.3498 40.954 21.1923C41.2799 22.2929 40.7635 23.419 39.6459 24.0583C39.1506 24.3419 38.6087 24.4689 38.0287 24.4393C37.6054 24.4604 37.1905 24.3631 36.7926 24.2699L36.7968 24.2657Z" fill="#7D4DBA"/>
<path id="Vector_15" d="M51.9054 27.7625C51.8927 26.5433 51.8292 25.5061 51.698 24.4986C51.5032 22.9957 51.1349 21.459 50.5804 19.8037C49.7125 17.2214 48.3832 14.7872 46.6306 12.5647C45.1743 10.7147 43.4895 9.13987 41.6352 7.88256C40.2594 6.94698 39.074 6.26541 37.9141 5.73624C36.4409 5.06313 35.0777 4.58053 33.74 4.25879C33.1389 4.11486 32.4954 3.97939 31.7122 3.83545C31.6656 3.82699 31.636 3.82275 31.6233 3.82275C31.6233 3.83122 31.6233 3.85239 31.6191 3.87779C31.6064 4.05982 31.5725 4.23762 31.5386 4.40696C31.5217 4.49586 31.5048 4.58053 31.4921 4.66943C31.4836 4.7287 31.4751 4.7922 31.4667 4.83453C31.509 4.843 31.5725 4.8557 31.636 4.86416C33.304 5.13933 34.955 5.60924 36.5467 6.26118C39.9123 7.63702 42.901 9.82568 45.4241 12.7721C47.0497 14.6687 48.3705 16.9081 49.3484 19.4312C50.157 21.5183 50.6439 23.7069 50.792 25.9379C50.9106 27.7159 50.8386 29.4601 50.5804 31.128C50.0893 34.2861 48.9801 37.2325 47.2783 39.8953C47.2487 39.9419 47.236 39.9673 47.2318 39.9842C47.2402 39.9842 47.2572 40.0012 47.2826 40.0181C47.5747 40.1874 47.8202 40.3525 48.0319 40.5176C48.053 40.5346 48.07 40.543 48.0784 40.5515C48.0827 40.543 48.0954 40.5261 48.1165 40.4965C48.6923 39.6286 49.213 38.6592 49.7549 37.4442C51.1265 34.375 51.8546 31.1196 51.9096 27.7667L51.9054 27.7625Z" fill="#7D4DBA"/>
<path id="Vector_16" d="M12.6665 10.2913C14.1778 8.92812 15.9389 7.75547 17.9074 6.8072C19.9055 5.84199 21.9926 5.19005 24.1135 4.85984C24.1389 4.85984 24.1558 4.85138 24.1685 4.84714C24.1685 4.83868 24.1643 4.81751 24.1601 4.78788C24.1135 4.52117 24.0627 4.21214 24.0373 3.9031C24.0373 3.87347 24.0331 3.8523 24.0288 3.8396C24.0161 3.8396 23.995 3.8396 23.9696 3.84807C22.4075 4.10207 20.8961 4.50001 19.4822 5.03341C16.1675 6.27802 13.238 8.14918 10.7826 10.5961C9.2205 12.1497 7.89968 13.932 6.73974 16.0444C4.83049 19.5243 3.82718 23.3978 3.75098 27.555C3.75098 27.7963 3.76368 28.0376 3.77638 28.2789C3.78484 28.427 3.78908 28.5794 3.79331 28.7276C3.82718 29.7098 3.97111 30.6792 4.10658 31.4962C4.47488 33.6934 5.13952 35.8185 6.08357 37.8124C6.51114 38.7099 7.00644 39.6074 7.56525 40.4795C7.57795 40.5006 7.59911 40.5303 7.61605 40.5557C7.64568 40.5387 7.67955 40.5133 7.70918 40.4964C7.97165 40.3186 8.20872 40.1577 8.45426 40.0138C8.45426 40.0138 8.45849 40.0138 8.46272 40.0096C8.46272 40.0053 8.45426 39.9968 8.45002 39.9926C7.46788 38.4813 6.65084 36.8007 6.0243 34.993C5.33003 32.9906 4.94055 30.8697 4.83895 28.5075C4.75852 26.6829 4.89399 24.8795 5.23689 23.1353C5.65176 21.0186 6.38837 18.9654 7.48058 16.8572C8.71672 14.4781 10.4101 12.3317 12.6707 10.2913H12.6665Z" fill="#7D4DBA"/>
<path id="Vector_17" d="M26.9328 4.58894C26.9328 4.47464 26.9328 4.3815 26.9328 4.28837H26.9201L26.9074 4.08093V3.53906C26.6576 3.55176 26.4374 3.56446 26.2215 3.57293L25.8236 3.5941C25.8617 3.9497 25.8998 4.29684 25.9379 4.64397C26.2723 4.63127 26.6068 4.61434 26.937 4.59741L26.9328 4.58894Z" fill="#7D4DBA"/>
<path id="Vector_18" d="M28.6938 4.39001C28.6938 4.45775 28.6938 4.52548 28.6938 4.58898L29.7183 4.64402L29.7353 4.41118C29.7564 4.13601 29.7818 3.86508 29.803 3.58991L28.7404 3.53064C28.7319 3.72961 28.7192 3.90741 28.7108 4.08098L28.6938 4.38578V4.39001Z" fill="#7D4DBA"/>
<path id="Vector_19" d="M46.1858 41.4702L46.0123 41.6904C45.8768 41.8682 45.7371 42.046 45.5889 42.2111C45.5889 42.2153 45.5804 42.2195 45.5804 42.2238C45.5804 42.2238 45.5889 42.2322 45.5931 42.2365C45.8514 42.4439 46.1054 42.6556 46.3552 42.8715C46.5795 42.5836 46.787 42.3211 46.9986 42.0629C46.8081 41.919 46.6346 41.792 46.461 41.6607L46.1943 41.4575C46.1943 41.4575 46.1901 41.466 46.1858 41.466V41.4702Z" fill="#7D4DBA"/>
<path id="Vector_20" d="M9.7283 41.7877L9.47854 41.4702C9.20337 41.6946 8.93666 41.8978 8.67419 42.0841C8.81813 42.2619 8.94513 42.4185 9.0679 42.5751L9.30497 42.8715C9.5632 42.6598 9.82144 42.4481 10.0754 42.2322C9.95267 42.0756 9.83837 41.9317 9.7283 41.7877Z" fill="#7D4DBA"/>
<path id="Vector_21" d="M28.5414 20.1678C28.3213 19.101 27.7117 18.4279 26.6872 18.1189C26.5348 18.0723 26.3485 17.9834 26.3019 17.704C26.0268 16.108 24.6636 15.0709 23.0549 15.236C21.7257 15.3757 20.5996 16.5695 20.5446 17.8988C20.5446 17.9072 20.5446 17.9157 20.5446 17.9242C20.6885 17.9242 20.7986 17.9242 20.9129 17.9242H21.2769C21.3997 17.9242 21.5267 17.9242 21.5606 17.9115C21.569 17.8945 21.5944 17.7718 21.6241 17.6575C21.8188 16.8235 22.6316 16.2393 23.5376 16.2604C24.3758 16.2858 25.142 16.9505 25.2817 17.776C25.3537 18.1866 25.2732 18.5676 25.197 18.9317L25.1589 19.1137C25.1589 19.1137 25.1589 19.1307 25.1547 19.1434C25.1674 19.1434 25.1801 19.1434 25.1928 19.1391C25.2648 19.1307 25.341 19.118 25.4172 19.1095C25.7304 19.0629 26.0564 19.0164 26.3908 19.0883C27.0767 19.228 27.5677 19.8673 27.5508 20.6039C27.5381 21.3278 27.0132 21.9332 26.3062 22.0475C26.2511 22.0559 26.23 22.0644 26.2215 22.0686C26.2215 22.0686 26.2215 22.0898 26.2215 22.1279C26.2342 22.4793 26.23 22.8264 26.2215 23.0889C26.2215 23.0931 26.2215 23.0973 26.2215 23.1016C26.23 23.1016 26.2384 23.1016 26.2511 23.1016C26.6575 23.0677 27.0428 22.928 27.4323 22.674C28.2493 22.1406 28.7234 21.0653 28.5414 20.1678Z" fill="#7D4DBA"/>
</g>
</g>
</svg>
