<svg width="55" height="55" viewBox="0 0 55 55" fill="none" xmlns="http://www.w3.org/2000/svg">
<path d="M11.1625 45.0397C11.0525 45.0397 10.9424 44.9973 10.862 44.9127C6.10405 40.0531 3.26367 33.5342 3.26367 27.4767C3.26367 22.7188 4.52089 18.363 7.00145 14.5278C7.12845 14.3331 7.39089 14.2739 7.58561 14.4008C7.78033 14.5278 7.8396 14.7903 7.71261 14.985C5.32093 18.6805 4.11028 22.8839 4.11028 27.4725C4.11028 29.661 4.63941 37.3482 11.4673 44.3158C11.6324 44.4809 11.6282 44.7518 11.4631 44.9169C11.3827 44.9973 11.2726 45.0397 11.1668 45.0397H11.1625Z" fill="#7D4DBA"/>
<path d="M48.3077 39.1642C48.24 39.1642 48.1723 39.1473 48.1046 39.1134C47.8971 39.0034 47.8209 38.7451 47.9352 38.5377C49.7639 35.164 50.729 31.3373 50.729 27.4725C50.729 23.6078 49.6919 19.5102 47.732 16.0391C47.6178 15.8359 47.6897 15.5777 47.8929 15.4634C48.0961 15.3491 48.3543 15.421 48.4686 15.6242C50.5005 19.2223 51.5756 23.3157 51.5756 27.4725C51.5756 31.6294 50.5724 35.4434 48.6802 38.9441C48.6041 39.0838 48.4601 39.1642 48.3077 39.1642Z" fill="#7D4DBA"/>
<path d="M45.1923 12.1827C45.0738 12.1827 44.9595 12.1362 44.8748 12.0388C40.4598 7.06073 34.1102 4.20342 27.4601 4.20342C22.2492 4.20342 17.3262 5.88394 13.2201 9.06719C13.0338 9.21112 12.7714 9.17725 12.6275 8.991C12.4836 8.80475 12.5174 8.5423 12.7037 8.39837C16.9621 5.10083 22.0629 3.35681 27.4643 3.35681C34.3557 3.35681 40.9381 6.31571 45.514 11.4758C45.6707 11.6494 45.6537 11.9203 45.4802 12.0727C45.3997 12.1446 45.2981 12.1785 45.2008 12.1785L45.1923 12.1827Z" fill="#7D4DBA"/>
<path d="M27.7687 51.5925C23.6119 51.5925 19.51 50.5173 15.9119 48.4812C15.7088 48.3669 15.6368 48.1087 15.7511 47.9055C15.8654 47.7023 16.1236 47.6303 16.3268 47.7446C19.7979 49.7088 23.7558 50.7458 27.7687 50.7458C32.4547 50.7458 36.9671 49.3616 40.8277 46.7372C41.0224 46.6059 41.2848 46.6567 41.4161 46.8514C41.5473 47.0462 41.4965 47.3086 41.3018 47.4398C37.3015 50.1575 32.6198 51.5925 27.7687 51.5925Z" fill="#7D4DBA"/>
<path d="M10.5448 49.1456C10.3754 49.0144 10.2061 48.879 10.041 48.7393C9.8336 48.57 9.80397 48.2652 9.97329 48.062C10.1384 47.8588 10.4389 47.8292 10.6421 47.99C10.6421 47.99 10.6463 47.9943 10.6506 47.9985C10.8114 48.1297 10.9723 48.2609 11.1374 48.3879C11.349 48.553 11.3829 48.8536 11.222 49.0652C11.0612 49.2769 10.7522 49.3107 10.5448 49.1456Z" fill="#7D4DBA"/>
<path d="M9.08868 47.9224C9.08868 47.9224 9.07175 47.9097 9.06328 47.9012C8.7458 47.6133 8.42833 47.317 8.12355 47.0122C7.93306 46.826 7.93306 46.5212 8.12355 46.3307C8.3098 46.1402 8.61458 46.1402 8.80507 46.3307C9.09715 46.6228 9.40193 46.9107 9.71094 47.1858C9.90989 47.3636 9.92682 47.6684 9.7448 47.8673C9.57548 48.0578 9.28763 48.079 9.08868 47.9224ZM7.2854 46.136C7.2854 46.136 7.2473 46.1021 7.22614 46.081C6.93406 45.7635 6.65044 45.4376 6.3753 45.1116C6.20598 44.9084 6.23137 44.6036 6.43456 44.4301C6.63775 44.2608 6.94676 44.2862 7.11608 44.4893C7.38276 44.8068 7.65791 45.1201 7.93729 45.4249C8.11931 45.6196 8.10661 45.9244 7.90766 46.1064C7.72987 46.2672 7.46742 46.2757 7.2854 46.1318V46.136ZM5.65991 44.1888C5.62605 44.1634 5.59642 44.1338 5.57102 44.0999C5.3128 43.757 5.05882 43.4057 4.8133 43.0501C4.66091 42.83 4.72017 42.5294 4.94029 42.3771C5.16041 42.2247 5.46096 42.2797 5.60912 42.5041C5.84193 42.8469 6.08745 43.1856 6.3372 43.5157C6.49806 43.7274 6.45572 44.0322 6.24407 44.193C6.06628 44.3285 5.825 44.32 5.65568 44.193L5.65991 44.1888ZM4.22491 42.0977C4.18258 42.0638 4.14448 42.0215 4.11062 41.9707C3.88203 41.6024 3.66191 41.2299 3.45873 40.8574C3.3275 40.6246 3.41216 40.3283 3.64498 40.2013C3.8778 40.0743 4.17411 40.1547 4.3011 40.3875C4.50006 40.7473 4.71171 41.1071 4.93183 41.4627C5.07152 41.6913 5.00379 41.9876 4.7752 42.1273C4.59742 42.2374 4.3773 42.2162 4.22491 42.0977ZM2.99309 39.8796C2.93806 39.8372 2.8915 39.7822 2.85763 39.7145C2.66715 39.3293 2.48512 38.9356 2.31157 38.5419C2.20574 38.2964 2.3158 38.0128 2.56132 37.907C2.80684 37.8011 3.09045 37.9112 3.19628 38.1567C3.36137 38.5334 3.53915 38.9144 3.72118 39.2869C3.8397 39.524 3.74234 39.8161 3.50106 39.9346C3.3275 40.0192 3.12855 39.9939 2.98886 39.8838L2.99309 39.8796ZM1.97716 37.5556C1.90943 37.5048 1.85863 37.4329 1.82477 37.3482C1.67238 36.9461 1.52422 36.5355 1.393 36.1333C1.30834 35.8793 1.44803 35.6084 1.70201 35.5238C1.95599 35.4391 2.22691 35.5788 2.31157 35.8328C2.43856 36.2264 2.58248 36.6201 2.73064 37.0053C2.82377 37.2551 2.70101 37.5345 2.45126 37.6276C2.28617 37.6911 2.10838 37.6572 1.98139 37.5556H1.97716ZM1.18135 35.147C1.10092 35.0835 1.04166 34.9989 1.01202 34.8973C0.897732 34.4824 0.791905 34.0634 0.694545 33.6443C0.635283 33.3861 0.796138 33.1236 1.05859 33.0644C1.3168 33.0051 1.57502 33.1659 1.63852 33.4284C1.73164 33.8305 1.83324 34.2369 1.94329 34.6348C2.01526 34.893 1.86287 35.1597 1.60888 35.2274C1.45649 35.2698 1.29987 35.2317 1.18135 35.1428V35.147ZM0.614117 32.6749C0.525223 32.6029 0.457494 32.5014 0.436329 32.3786C0.360134 31.9511 0.292406 31.5235 0.237376 31.1002C0.203512 30.8378 0.389766 30.5923 0.652215 30.5584C0.914664 30.5245 1.16018 30.7108 1.19404 30.9732C1.24907 31.3796 1.31257 31.7944 1.38453 32.205C1.4311 32.4675 1.25754 32.7172 0.995092 32.7638C0.855401 32.7892 0.71571 32.7511 0.614117 32.6707V32.6749ZM0.283939 30.1605C0.182346 30.0801 0.110384 29.9615 0.101918 29.8218C0.0638209 29.3985 0.0384226 28.9625 0.0214904 28.5308C0.0130243 28.2641 0.220444 28.0397 0.487126 28.0313C0.753808 28.0228 0.978159 28.2302 0.986626 28.4969C1.00356 28.9117 1.02896 29.3308 1.06282 29.7414C1.08399 30.0081 0.889265 30.2409 0.622583 30.2621C0.495592 30.2748 0.377067 30.2324 0.283939 30.1605Z" fill="#7D4DBA"/>
<path d="M0.186254 27.6164C0.0719618 27.5275 0 27.3878 0 27.2312C0 27.0153 0.00423305 26.7994 0.0126991 26.5836C0.0211652 26.3169 0.245517 26.1095 0.512199 26.1179C0.778881 26.1264 0.9863 26.3507 0.977834 26.6174C0.969368 26.8248 0.965135 27.0323 0.965135 27.2397C0.965135 27.5064 0.745017 27.7223 0.478335 27.718C0.368275 27.718 0.266682 27.6799 0.186254 27.6164Z" fill="#7D4DBA"/>
<path d="M48.0753 45.0311L48.0668 45.0227C47.8594 44.8533 47.8298 44.5485 47.9991 44.3454C48.1303 44.1845 48.2616 44.0237 48.3885 43.8586C48.5536 43.6469 48.8584 43.613 49.0658 43.7781C49.2733 43.9432 49.3114 44.2438 49.1505 44.4554C49.0193 44.6247 48.8838 44.7941 48.7484 44.9592C48.5833 45.1623 48.2827 45.1962 48.0753 45.0353V45.0311Z" fill="#7D4DBA"/>
<path d="M16.9327 52.8708C16.7676 52.7395 16.6999 52.511 16.7845 52.3078C16.8861 52.0623 17.1697 51.9437 17.4153 52.0453C17.7878 52.1977 18.1645 52.3416 18.5413 52.4771C18.7952 52.5702 18.9222 52.8454 18.8333 53.0951C18.7444 53.3449 18.4651 53.4761 18.2153 53.3872C17.8259 53.2475 17.4322 53.0951 17.047 52.9385C17.0047 52.9216 16.9666 52.9004 16.9327 52.8708ZM19.2439 53.7004C19.0916 53.5819 19.0196 53.3745 19.0789 53.1798C19.155 52.9258 19.426 52.7819 19.6799 52.8623C20.0652 52.9808 20.4504 53.0909 20.8398 53.1925C21.098 53.2602 21.2546 53.5227 21.1869 53.7809C21.1192 54.0391 20.8567 54.1957 20.5985 54.128C20.1964 54.0222 19.7942 53.9121 19.3963 53.7893C19.3371 53.7724 19.2863 53.7428 19.2397 53.7089L19.2439 53.7004ZM21.6229 54.3142C21.4832 54.2042 21.407 54.0222 21.4494 53.8359C21.5044 53.5735 21.7584 53.4084 22.0208 53.4634C22.4145 53.5481 22.8082 53.62 23.2061 53.6835C23.4685 53.7258 23.6463 53.9756 23.604 54.238C23.5616 54.5005 23.3119 54.6783 23.0495 54.636C22.6388 54.5682 22.2282 54.492 21.8219 54.4074C21.7457 54.3904 21.6779 54.3608 21.6229 54.3142ZM24.0442 54.7079C23.9172 54.6063 23.841 54.4455 23.8622 54.2719C23.8918 54.0052 24.1331 53.819 24.3998 53.8486C24.7977 53.8952 25.1998 53.9333 25.602 53.9629C25.8687 53.9798 26.0676 54.2126 26.0507 54.4793C26.0338 54.746 25.8009 54.945 25.5343 54.928C25.1194 54.8984 24.7046 54.8603 24.2897 54.8095C24.1966 54.7968 24.1162 54.7629 24.0485 54.7121L24.0442 54.7079ZM26.4952 54.8815C26.3809 54.7926 26.3047 54.6486 26.3089 54.4878C26.3174 54.2211 26.5375 54.0095 26.8042 54.0179C27.2063 54.0264 27.6084 54.0306 28.0106 54.0179C28.2773 54.0137 28.4974 54.2253 28.5016 54.492C28.5059 54.7587 28.2942 54.9788 28.0275 54.9831C27.6127 54.9915 27.1936 54.9915 26.7788 54.9831C26.6729 54.9831 26.5713 54.9407 26.4952 54.8815ZM28.9503 54.8349C28.8445 54.7545 28.7768 54.6275 28.7683 54.4878C28.7514 54.2211 28.9503 53.9925 29.217 53.9756C29.6191 53.9502 30.017 53.9121 30.4192 53.8698C30.6859 53.8401 30.9229 54.0306 30.9526 54.2973C30.9822 54.564 30.7917 54.801 30.525 54.8307C30.1102 54.8772 29.6953 54.9111 29.2805 54.9407C29.1577 54.9492 29.0434 54.9111 28.9503 54.8391V54.8349ZM31.3886 54.564C31.2954 54.492 31.2277 54.3862 31.2108 54.2592C31.1684 53.9968 31.3505 53.747 31.6129 53.7089C32.0108 53.6454 32.4045 53.5735 32.7982 53.4973C33.0606 53.4422 33.3146 53.6115 33.3654 53.874C33.4162 54.1364 33.2511 54.3904 32.9886 54.4412C32.5823 54.5259 32.1717 54.5979 31.7568 54.6613C31.6214 54.6825 31.4859 54.6444 31.3843 54.564H31.3886ZM33.7929 54.073C33.7125 54.0095 33.649 53.9206 33.6236 53.8105C33.5601 53.5523 33.7167 53.2898 33.975 53.2263C34.3644 53.129 34.7538 53.0232 35.139 52.9046C35.393 52.8284 35.6639 52.9724 35.7401 53.2263C35.8163 53.4803 35.6724 53.7512 35.4142 53.8274C35.0163 53.946 34.6141 54.056 34.2078 54.1576C34.0554 54.1957 33.9072 54.1576 33.7929 54.0687V54.073ZM36.1465 53.366C36.0745 53.311 36.0195 53.2348 35.9899 53.1459C35.901 52.8962 36.0322 52.621 36.2862 52.5321C36.6629 52.4009 37.0439 52.257 37.4164 52.1088C37.6619 52.0115 37.9456 52.13 38.0429 52.3755C38.1403 52.621 38.0217 52.9046 37.7762 53.002C37.391 53.1586 36.9973 53.3025 36.6079 53.4422C36.4471 53.4973 36.2777 53.4634 36.1507 53.366H36.1465ZM38.4239 52.4517C38.3646 52.4051 38.3138 52.3459 38.2842 52.2739C38.1741 52.0326 38.2842 51.7448 38.5255 51.6347C38.8895 51.4696 39.2536 51.2918 39.6134 51.1098C39.8504 50.9871 40.1425 51.0802 40.261 51.3215C40.3838 51.5585 40.2864 51.8506 40.0494 51.9691C39.6769 52.1596 39.2959 52.3416 38.9234 52.5152C38.7541 52.5914 38.5636 52.5618 38.4239 52.4559V52.4517ZM40.6124 51.3342C40.5658 51.2961 40.5235 51.2495 40.4896 51.1945C40.3584 50.9617 40.4388 50.6696 40.6674 50.5341C41.0145 50.3352 41.3616 50.1278 41.7003 49.9119C41.9246 49.7679 42.2252 49.8357 42.3649 50.06C42.5088 50.2844 42.441 50.5849 42.2167 50.7246C41.8654 50.949 41.5055 51.1648 41.1457 51.368C40.9722 51.4696 40.7563 51.4485 40.6081 51.3299L40.6124 51.3342ZM42.6866 50.0219C42.6485 49.9923 42.6188 49.9584 42.5892 49.9203C42.4368 49.7002 42.4876 49.3997 42.7077 49.2473C43.0379 49.0187 43.3596 48.7774 43.6813 48.5319C43.893 48.371 44.1978 48.4091 44.3586 48.6208C44.5195 48.8324 44.4814 49.133 44.2697 49.2981C43.9396 49.5521 43.6009 49.8018 43.2623 50.0389C43.0845 50.1616 42.8517 50.1531 42.6866 50.0219ZM44.6338 48.5234C44.6084 48.5023 44.583 48.4811 44.5618 48.4557C44.3883 48.2525 44.4137 47.9477 44.6168 47.7742C44.9216 47.516 45.2222 47.2493 45.5185 46.9741C45.7132 46.7921 46.0222 46.8006 46.2 46.9995C46.382 47.1942 46.3693 47.499 46.1746 47.681C45.8698 47.9604 45.5566 48.2398 45.2391 48.5107C45.0613 48.6631 44.8073 48.6589 44.6295 48.5234H44.6338ZM46.4328 46.8514C46.4328 46.8514 46.4032 46.826 46.3905 46.8133C46.2 46.627 46.2 46.3222 46.3863 46.1318C46.6656 45.8481 46.945 45.5518 47.2117 45.2513C47.3895 45.0523 47.6943 45.0396 47.8932 45.2174C48.0922 45.3952 48.1091 45.7 47.9271 45.8989C47.6477 46.2079 47.3599 46.5127 47.0678 46.809C46.8942 46.9868 46.6191 46.9995 46.4286 46.8514H46.4328Z" fill="#7D4DBA"/>
<path d="M15.2224 52.1003C15.0446 51.9606 14.9853 51.715 15.0869 51.5076C15.2054 51.2706 15.4933 51.169 15.7346 51.2917C15.9208 51.3849 16.1071 51.4738 16.2976 51.5627C16.5388 51.677 16.6447 51.9648 16.5304 52.2061C16.4161 52.4474 16.1325 52.5532 15.8869 52.4389C15.6922 52.35 15.4975 52.2526 15.3028 52.1595C15.2732 52.1468 15.2435 52.1257 15.2181 52.1087L15.2224 52.1003Z" fill="#7D4DBA"/>
<path d="M51.9988 17.1396C51.9353 17.0931 51.8887 17.0296 51.8549 16.9534C51.7702 16.7629 51.6856 16.5724 51.6009 16.3819C51.4908 16.1406 51.5967 15.8528 51.8379 15.7427C52.0792 15.6327 52.3671 15.7385 52.4771 15.9798C52.566 16.1745 52.6549 16.3735 52.7396 16.5724C52.8454 16.8179 52.7311 17.1015 52.4898 17.2074C52.3205 17.2793 52.1343 17.2497 51.9988 17.1439V17.1396Z" fill="#7D4DBA"/>
<path d="M52.7859 36.5778C52.6293 36.455 52.5574 36.2433 52.6251 36.0402C52.7563 35.6549 52.8791 35.2613 52.9934 34.8761C53.0653 34.6221 53.3362 34.4739 53.5902 34.5459C53.8442 34.6178 53.9924 34.8888 53.9204 35.1427C53.8061 35.5449 53.6749 35.9513 53.5394 36.3492C53.4548 36.6031 53.1796 36.7344 52.9256 36.6497C52.8706 36.6328 52.824 36.6074 52.7817 36.5735L52.7859 36.5778ZM53.4759 34.1903C53.332 34.076 53.26 33.8855 53.3024 33.6993C53.3955 33.3056 53.4844 32.9035 53.5606 32.5056C53.6114 32.2431 53.8654 32.0738 54.1236 32.1203C54.386 32.1711 54.5554 32.4209 54.5088 32.6833C54.4284 33.094 54.3395 33.5088 54.2421 33.9194C54.1786 34.1776 53.9204 34.3385 53.6622 34.275C53.5945 34.258 53.531 34.2284 53.4759 34.1861V34.1903ZM53.9416 31.7478C53.8103 31.6462 53.7342 31.4769 53.7596 31.2991C53.8188 30.9012 53.8654 30.4949 53.9077 30.0885C53.9331 29.8218 54.1702 29.6271 54.4326 29.6525C54.6993 29.6779 54.894 29.9149 54.8686 30.1774C54.8263 30.6007 54.7755 31.0198 54.7162 31.4346C54.6781 31.697 54.4326 31.8833 54.1702 31.8452C54.0855 31.8325 54.0051 31.7986 53.9416 31.7478ZM54.1829 29.2715C54.0643 29.1784 53.9881 29.0302 53.9966 28.8651C54.0178 28.4588 54.0305 28.0482 54.0305 27.646C54.0305 27.3793 54.2506 27.1635 54.5173 27.1677C54.7839 27.1677 54.9998 27.3878 54.9956 27.6545C54.9956 28.0736 54.9829 28.5011 54.9617 28.9202C54.949 29.1868 54.7205 29.39 54.4538 29.3773C54.3522 29.3731 54.2548 29.335 54.1829 29.2757V29.2715ZM54.1956 26.7867C54.0897 26.702 54.0178 26.5751 54.0093 26.4269C53.9924 26.029 53.967 25.6184 53.9331 25.2078C53.9119 24.9411 54.1067 24.7083 54.3733 24.6871C54.64 24.666 54.8728 24.8607 54.8982 25.1274C54.9363 25.5507 54.9617 25.974 54.9787 26.3888C54.9871 26.6555 54.7839 26.8798 54.5173 26.8883C54.3987 26.8925 54.2887 26.8544 54.1998 26.7867H54.1956ZM53.9797 24.3104C53.8823 24.2342 53.8146 24.1241 53.7976 23.9929C53.7426 23.5908 53.6791 23.1844 53.6072 22.7865C53.5606 22.524 53.7342 22.2743 53.9966 22.2277C54.259 22.1812 54.5088 22.3547 54.5554 22.6172C54.6316 23.032 54.6951 23.4511 54.7501 23.8701C54.7839 24.1326 54.5977 24.3781 54.3352 24.412C54.1998 24.4289 54.0728 24.3908 53.9754 24.3146L53.9797 24.3104ZM53.5394 21.8637C53.4548 21.7959 53.3913 21.7028 53.3659 21.5928C53.277 21.2033 53.1754 20.8054 53.0696 20.4075C52.9976 20.1493 53.15 19.8826 53.404 19.8149C53.6622 19.7429 53.9246 19.8953 53.9966 20.1493C54.1109 20.5599 54.2125 20.9705 54.3056 21.3769C54.3649 21.6351 54.1998 21.8933 53.9416 21.9526C53.7934 21.9864 53.6495 21.9483 53.5352 21.8637H53.5394ZM52.8791 19.4678C52.8071 19.4127 52.7479 19.3323 52.7182 19.2392C52.5955 18.8582 52.4558 18.4688 52.3118 18.0878C52.2187 17.838 52.3415 17.5587 52.5912 17.4655C52.841 17.3724 53.1204 17.4952 53.2135 17.7449C53.3616 18.1386 53.5056 18.5407 53.6326 18.9386C53.713 19.1926 53.5775 19.4635 53.3235 19.5482C53.1627 19.599 52.9976 19.5651 52.8748 19.4678H52.8791Z" fill="#7D4DBA"/>
<path d="M52.1173 38.3345C51.9522 38.2033 51.8845 37.9705 51.9692 37.7673C52.0496 37.5768 52.13 37.3821 52.202 37.1916C52.2993 36.9418 52.5787 36.8191 52.8285 36.9164C53.074 37.0138 53.201 37.2932 53.1036 37.5429C53.0232 37.7419 52.9428 37.9451 52.8581 38.144C52.7565 38.3895 52.4729 38.5038 52.2274 38.4022C52.1851 38.3853 52.1512 38.3641 52.1173 38.3387V38.3345Z" fill="#7D4DBA"/>
<path d="M21.0931 1.5578C21.0084 1.4943 20.9449 1.39694 20.9195 1.28688C20.8602 1.02867 21.0211 0.766218 21.2793 0.706955C21.491 0.660391 21.6984 0.613828 21.91 0.567264C22.1683 0.512235 22.4265 0.681557 22.4815 0.944006C22.5365 1.20645 22.3672 1.46044 22.1048 1.51547C21.9016 1.5578 21.6984 1.60436 21.4952 1.65092C21.347 1.68479 21.1989 1.65092 21.0888 1.56203L21.0931 1.5578Z" fill="#7D4DBA"/>
<path d="M22.8961 1.2064C22.8029 1.13444 22.7394 1.02861 22.7183 0.901619C22.6759 0.63917 22.8537 0.38942 23.1162 0.34709C23.5183 0.283594 23.9247 0.224331 24.3268 0.177768C24.5935 0.148136 24.8306 0.338624 24.8602 0.601073C24.8898 0.867755 24.6993 1.10481 24.4369 1.13444C24.0474 1.181 23.658 1.2318 23.2686 1.29529C23.1289 1.31646 22.9976 1.27836 22.8961 1.19793V1.2064ZM25.2835 0.93125C25.1819 0.850823 25.1099 0.728064 25.1015 0.58414C25.0845 0.317458 25.2835 0.0888738 25.5502 0.0677085C25.9566 0.0380772 26.3629 0.0169119 26.7735 0.00844584C27.0402 -2.02549e-05 27.2603 0.211632 27.2688 0.478314C27.2773 0.744996 27.0656 0.965115 26.7989 0.973581C26.4053 0.98628 26.0116 1.00321 25.6179 1.03284C25.4951 1.04131 25.3766 1.00321 25.2877 0.93125H25.2835ZM27.6879 0.867755C27.5736 0.778861 27.5016 0.634937 27.5016 0.478314C27.5058 0.211632 27.726 -2.02549e-05 27.9926 0.00421279C28.399 0.0126789 28.8054 0.025378 29.216 0.0507763C29.4827 0.0677085 29.6859 0.296293 29.6689 0.562975C29.652 0.829657 29.4234 1.03284 29.1567 1.01591C28.7631 0.990513 28.3694 0.977814 27.9757 0.969348C27.8657 0.969348 27.7683 0.93125 27.6879 0.867755ZM30.088 1.01591C29.961 0.918551 29.8891 0.757695 29.906 0.58414C29.9356 0.317458 30.1727 0.126971 30.4351 0.156603C30.8415 0.198933 31.2436 0.253963 31.65 0.313225C31.9124 0.355556 32.0945 0.601073 32.0564 0.863522C32.0183 1.12597 31.7685 1.30799 31.5061 1.26989C31.1166 1.21063 30.7272 1.15984 30.3378 1.1175C30.2446 1.10904 30.16 1.07094 30.0922 1.01591H30.088ZM32.4627 1.37572C32.3231 1.26566 32.2511 1.08787 32.285 0.901619C32.3358 0.63917 32.5897 0.469848 32.8522 0.520645C33.2501 0.601073 33.648 0.685734 34.0459 0.783094C34.3041 0.84659 34.465 1.10904 34.4015 1.36725C34.338 1.62547 34.0755 1.78633 33.8173 1.72283C33.4363 1.6297 33.0511 1.54504 32.6659 1.46885C32.5897 1.45192 32.5178 1.42228 32.4627 1.37572ZM34.7952 1.94718C34.6428 1.82866 34.5708 1.62547 34.6301 1.43075C34.7063 1.17677 34.9729 1.02861 35.2269 1.10481C35.6164 1.2191 36.0058 1.34186 36.391 1.47308C36.645 1.55774 36.7762 1.83289 36.6916 2.08687C36.6069 2.34086 36.3318 2.47208 36.0778 2.38742C35.7053 2.26043 35.3285 2.1419 34.9518 2.03184C34.8925 2.01491 34.8375 1.98528 34.7909 1.94718H34.7952ZM37.0683 2.72606C36.9032 2.59907 36.8355 2.37472 36.9159 2.17153C37.0133 1.92178 37.2927 1.80326 37.5424 1.90062C37.9191 2.04878 38.2959 2.2054 38.6726 2.37472C38.9139 2.48055 39.024 2.76839 38.9181 3.01391C38.8081 3.25519 38.5245 3.36525 38.279 3.25943C37.9191 3.09857 37.5551 2.94618 37.1911 2.80226C37.1445 2.78533 37.1064 2.75993 37.0683 2.73453V2.72606ZM39.261 3.7039C39.0832 3.56421 39.024 3.31869 39.1256 3.10704C39.2441 2.86999 39.5362 2.77263 39.7732 2.89115C40.1373 3.07317 40.4971 3.26366 40.8526 3.46261C41.0855 3.59384 41.1701 3.88592 41.0389 4.11874C40.9077 4.35155 40.6156 4.43621 40.3828 4.30499C40.0399 4.1145 39.6886 3.92825 39.3415 3.75469C39.3118 3.73776 39.2822 3.72083 39.261 3.7039ZM41.3606 4.87222C41.1701 4.72406 41.1193 4.44891 41.2463 4.23726C41.386 4.00868 41.6823 3.94095 41.9109 4.08064C42.258 4.29229 42.5967 4.51664 42.9353 4.74523C43.1597 4.90185 43.2147 5.19393 43.0623 5.41405C42.9099 5.63417 42.6136 5.69343 42.3935 5.54104C42.0675 5.32092 41.7374 5.10504 41.4029 4.89762C41.386 4.88915 41.3733 4.87645 41.3606 4.86799V4.87222Z" fill="#7D4DBA"/>
<path d="M43.3547 6.21832C43.1472 6.05747 43.1091 5.76116 43.2658 5.5495C43.4266 5.33785 43.7272 5.29129 43.943 5.45214C44.1166 5.57913 44.2859 5.71036 44.4552 5.84582C44.6669 6.01091 44.7008 6.31145 44.5399 6.5231C44.3791 6.73476 44.07 6.76862 43.8626 6.60353C43.6975 6.47654 43.5324 6.34955 43.3674 6.22256C43.3674 6.22256 43.3631 6.21833 43.3589 6.21409L43.3547 6.21832Z" fill="#7D4DBA"/>
<path d="M48.3284 41.2807C48.447 41.2595 48.4639 41.2468 48.4639 41.0945C48.4597 36.8106 48.4597 32.5225 48.4597 28.2387V10.9763C48.4597 10.9467 48.4597 10.917 48.4597 10.8916C48.4343 10.8959 48.4046 10.9043 48.375 10.9086C46.2161 11.37 43.8964 11.5986 41.2762 11.607C39.82 11.607 38.2622 11.5393 36.2388 11.3615C34.8673 11.243 33.4493 11.0779 32.0312 10.8747C30.6385 10.6758 29.2416 10.4683 27.8489 10.2567C25.5335 9.90534 23.4423 9.5921 21.3046 9.32542C19.2262 9.07143 17.152 8.91481 15.1498 8.86401C13.3381 8.81745 11.4501 8.91481 9.54524 9.1434C8.6817 9.24922 7.81392 9.41008 6.97578 9.5667C6.94615 9.57093 6.90382 9.5794 6.89112 9.58786C6.90382 11.1329 6.90382 12.6653 6.89958 14.1977C7.19166 14.1977 7.46258 14.1892 7.73349 14.2104C7.78006 14.2104 7.80122 14.2104 7.80969 14.2104C7.80969 14.2104 7.80969 14.1807 7.80969 14.1215C7.80546 13.5415 7.80122 12.9616 7.80122 12.3859C7.80122 11.806 7.80122 11.2303 7.79276 10.6504C7.79276 10.4091 7.89858 10.2863 8.12717 10.2525C8.34729 10.2228 8.5674 10.189 8.78752 10.1551C8.94838 10.1297 9.11347 10.1043 9.27432 10.0789C10.7771 9.86301 12.3771 9.76565 14.4598 9.76565H14.5148C15.6281 9.76565 16.8472 9.82068 18.2442 9.93497C19.1373 10.0069 20.0305 10.0958 20.9237 10.189L21.1142 10.2101C22.0878 10.3075 23.0783 10.4599 23.9545 10.5911C24.5175 10.6758 25.0763 10.7562 25.6393 10.8366C26.0118 10.8874 26.3885 10.9424 26.761 10.9975C27.1717 11.0567 27.2309 11.1287 27.2309 11.5435V13.1309C27.2309 14.7141 27.2267 16.2972 27.2309 17.8804C27.2309 20.0985 27.2351 22.3209 27.2436 24.539C27.2436 24.5813 27.2436 24.7041 27.1505 24.7845C27.0574 24.8649 26.9431 24.8438 26.8838 24.8353L24.6826 24.5178C23.3069 24.3146 21.8846 24.1072 20.475 23.9591C18.5024 23.7474 16.8684 23.6331 15.3318 23.5993C14.1085 23.5696 12.8682 23.595 11.6448 23.667C10.6458 23.7262 9.57487 23.8532 8.17373 24.0734C8.09754 24.0861 7.97054 24.1072 7.87742 24.0226C7.79276 23.9506 7.78429 23.8405 7.78852 23.7516C7.79276 23.4892 7.78852 23.2267 7.78852 22.9643C7.78852 22.8204 7.78852 22.6765 7.78852 22.5283V21.8976C7.78852 19.8657 7.78852 15.785 7.79699 13.7532C7.79699 13.7278 6.87842 13.7363 6.87842 13.7955C6.88265 20.598 6.88265 29.4493 6.88265 36.2518V39.6764C6.88265 39.7145 7.107 39.8669 7.107 39.8923C8.93991 39.4774 10.7432 39.2954 13.0671 39.2319C13.4354 39.2234 13.8037 39.215 14.1847 39.215C15.8017 39.215 17.5457 39.3081 19.5776 39.4944C21.3639 39.6594 23.1079 39.9007 25.0382 40.1759C26.0838 40.324 27.1251 40.4849 28.1664 40.6457C29.4702 40.8489 30.8163 41.0564 32.1455 41.2341C33.6821 41.4416 35.4769 41.6701 37.2717 41.8098C39.1343 41.9495 41.0603 41.9834 43.1556 41.903C44.9928 41.8352 46.7961 41.5389 48.32 41.2638L48.3284 41.2807ZM28.1326 11.5986C28.1326 11.5351 28.1326 11.4038 28.2257 11.3234C28.3061 11.2515 28.4119 11.2557 28.5135 11.2726C29.8681 11.4758 31.2692 11.6875 32.6704 11.8822C33.2757 11.9668 33.881 12.0303 34.4864 12.0981L35.2229 12.1785C37.6781 12.4579 40.1332 12.5679 42.5207 12.5002C43.9134 12.4621 45.4119 12.3097 47.1093 12.0346C47.2702 12.0092 47.376 11.9922 47.4649 12.0684C47.5538 12.1446 47.5538 12.2589 47.5538 12.4155V13.2749C47.5538 14.0664 47.5538 14.8538 47.558 15.6454C47.558 15.8739 47.4607 15.9925 47.2321 16.0348C45.0563 16.4285 42.8847 16.5004 41.437 16.5216C39.2993 16.5216 37.6527 16.4031 36.1923 16.2761C34.571 16.1364 32.9328 15.9078 31.3454 15.6877L31.1761 15.6623C30.8375 15.6157 30.5031 15.5649 30.1644 15.5184C29.6014 15.4379 29.0342 15.3533 28.4712 15.2813C28.2384 15.2517 28.1241 15.1247 28.1283 14.8876C28.1368 13.7913 28.1368 12.6949 28.1326 11.6028V11.5986ZM47.558 20.5472C47.558 20.78 47.4607 20.8943 47.2321 20.9367C45.9622 21.161 44.5991 21.3049 43.071 21.3727C42.3048 21.4065 41.636 21.4235 40.9037 21.4192C40.819 21.4192 40.7343 21.4192 40.6497 21.4192C39.3332 21.4192 37.8347 21.3346 35.8409 21.1483C34.5033 21.0256 33.2884 20.8774 32.1201 20.6996C30.8798 20.5091 29.5972 20.3356 28.4627 20.1832C28.2299 20.1493 28.1241 20.0266 28.1241 19.7895C28.1283 18.6889 28.1326 17.5841 28.1241 16.4835C28.1241 16.42 28.1241 16.3015 28.213 16.2253C28.2934 16.1576 28.3992 16.1618 28.4797 16.1745C29.7961 16.3734 30.8967 16.5385 32.0354 16.6909C32.9582 16.8137 33.9318 16.9364 35.1933 17.0804C38.004 17.4063 40.7978 17.4952 43.4901 17.3555C44.7938 17.2878 46.0722 17.1058 47.1474 16.9364C47.249 16.9195 47.3675 16.911 47.4564 16.9872C47.5453 17.0634 47.5538 17.182 47.5538 17.2751C47.5453 18.363 47.5453 19.4509 47.5538 20.543L47.558 20.5472ZM8.14833 24.9792C8.95684 24.8438 9.62143 24.7549 10.2437 24.6956C12.0089 24.5263 13.846 24.467 15.717 24.5263C16.7372 24.5602 17.7404 24.6321 18.7648 24.7125C20.1448 24.8184 21.6475 24.9877 23.3619 25.2247C24.4075 25.3687 25.453 25.5295 26.4986 25.6904C27.0277 25.7708 27.5611 25.8512 28.0902 25.9317L28.268 25.9571C29.9782 26.211 31.7433 26.4735 33.4874 26.6978C33.7498 26.7317 34.008 26.7613 34.2705 26.7867C34.6514 26.8291 35.0367 26.8672 35.4176 26.9264C35.4303 26.9264 35.4388 26.9264 35.443 26.9264C35.443 26.9222 35.443 26.9137 35.443 26.9095C35.4642 26.6174 35.4854 26.3296 35.5192 26.0375C35.4981 26.0375 35.4896 26.0375 35.4769 26.0375C35.2144 26.0036 34.952 25.9698 34.6938 25.9401C34.4906 25.9147 34.2832 25.8893 34.08 25.8639L33.5001 25.792C32.6915 25.6904 31.8873 25.5846 31.0788 25.4745C30.6174 25.411 30.1602 25.3433 29.703 25.2755C29.2882 25.212 28.8691 25.1528 28.4543 25.0935C28.1283 25.047 28.1283 24.793 28.1283 24.7083C28.1326 23.6035 28.1368 22.5029 28.1283 21.3981C28.1283 21.3134 28.1368 21.2076 28.2172 21.1399C28.3103 21.0594 28.4331 21.0806 28.4839 21.0891C29.3517 21.2203 30.2194 21.3473 31.0872 21.47C31.9846 21.5928 32.8778 21.7155 33.7752 21.8298L33.9361 21.851C34.9859 21.9822 36.0695 22.1135 37.1362 22.1897L37.4622 22.2108C38.1352 22.2574 38.8337 22.3039 39.5195 22.3166C40.819 22.3378 42.0932 22.3547 43.3504 22.2828C44.506 22.215 45.7463 22.0754 47.1474 21.851C47.249 21.8341 47.3675 21.8298 47.4522 21.9018C47.5411 21.978 47.5495 22.0923 47.5495 22.1939C47.5411 23.3918 47.5411 24.4543 47.5495 25.4406C47.5495 25.6904 47.448 25.8174 47.1982 25.8555C45.2214 26.1856 43.1726 26.3465 41.2762 26.3338C39.8793 26.338 38.5501 26.283 37.0982 26.1645C37.0643 26.1645 37.0474 26.1645 37.0347 26.1645C37.0347 26.1687 37.0347 26.1899 37.0347 26.2195C37.0262 26.465 37.0177 26.7529 36.9796 27.0492C36.9796 27.0704 36.9796 27.0831 36.9796 27.0915C36.9839 27.0915 37.0008 27.0915 37.0304 27.0915C38.876 27.2058 40.383 27.2524 41.7799 27.2354C43.2615 27.2143 44.7642 27.1 46.2373 26.8926L46.3347 26.8799C46.6183 26.8418 46.8977 26.7994 47.177 26.7486C47.2617 26.7317 47.3718 26.7232 47.4564 26.7952C47.5538 26.8756 47.5538 27.0111 47.5538 27.0661C47.5495 28.1752 47.5495 29.2842 47.5538 30.3933C47.5538 30.6684 47.376 30.7319 47.2405 30.7573C46.3177 30.9182 45.306 31.041 44.1419 31.1299C43.1556 31.206 42.1566 31.2399 41.1322 31.2399C40.2983 31.2399 39.4475 31.2145 38.567 31.1679C37.75 31.1214 36.7341 31.0664 35.7647 30.9605C32.9498 30.6515 30.7994 30.3679 28.7929 30.0377C27.8616 29.8853 26.905 29.7499 25.9864 29.6187C25.326 29.5255 24.6657 29.4324 24.0096 29.3308C22.3163 29.0726 20.5766 28.8652 18.6844 28.6916C16.3985 28.4842 14.0661 28.4461 11.7422 28.5731C10.5273 28.6408 9.31665 28.8144 8.1441 28.9795C8.06367 28.9922 7.96208 28.9964 7.88165 28.9287C7.79699 28.8525 7.79699 28.7424 7.79699 28.6662C7.79699 27.5783 7.80122 26.4862 7.78852 25.3983C7.78852 25.0766 7.98748 25.0046 8.1441 24.9792H8.14833ZM41.1619 41.0564C41.128 41.0564 41.0942 41.0564 41.0603 41.0564C39.4729 41.0564 37.7797 40.9632 35.7266 40.7685C33.7456 40.578 31.7857 40.2986 29.7834 40.0023L28.014 39.7399C26.4182 39.5028 24.8181 39.2658 23.218 39.033C19.2686 38.4573 15.9668 38.2329 12.8174 38.3303C11.5178 38.3684 10.1379 38.5038 8.46581 38.7536C8.18643 38.7959 8.03404 38.8171 7.91975 38.7197C7.80122 38.6181 7.80122 38.4573 7.80122 38.1863C7.80122 37.7038 7.80122 37.2212 7.80122 36.7386C7.80122 36.2137 7.80122 35.6846 7.79699 35.1597C7.79699 34.9565 7.89435 34.8422 8.0933 34.8041C8.79599 34.6729 9.51984 34.5713 10.3114 34.4909C11.9496 34.33 13.6682 34.275 15.5604 34.3258C16.4832 34.3512 17.4653 34.4105 18.6505 34.5078C18.8791 34.529 19.1119 34.5417 19.3405 34.5544L19.5098 34.5629C19.531 34.2496 19.5564 33.9956 19.5903 33.7628C19.5987 33.7035 19.5903 33.6824 19.5903 33.6739C19.5903 33.6739 19.5649 33.6654 19.5098 33.6612C19.1754 33.64 18.841 33.6104 18.5066 33.5808C18.168 33.5512 17.8293 33.5215 17.4907 33.5004C15.6832 33.3776 13.846 33.3607 12.0343 33.4496C10.904 33.5046 9.68493 33.64 8.1949 33.8686C8.11447 33.8813 7.98748 33.9025 7.89435 33.8221C7.80969 33.7501 7.80122 33.64 7.80122 33.5427C7.80969 32.277 7.80546 31.2526 7.79276 30.3171C7.79276 30.0504 7.90282 29.9107 8.16527 29.8684C8.98224 29.7329 9.6553 29.6398 10.2818 29.5848C12.1274 29.4197 13.8291 29.3604 15.4884 29.4155C16.7287 29.4536 18.0791 29.5425 19.6157 29.6821C20.6951 29.7795 21.8422 29.915 23.3365 30.1139C24.1281 30.2197 24.9154 30.3383 25.7028 30.461C26.0541 30.5161 26.4012 30.5669 26.7526 30.6219L28.4585 30.8801C29.8342 31.0875 31.21 31.2949 32.59 31.4897C33.7329 31.6505 34.897 31.786 36.0526 31.8918C38.1818 32.0908 40.1544 32.1669 42.0762 32.1289C43.7483 32.095 45.4288 31.9341 47.2151 31.6378C47.2871 31.6251 47.3887 31.6167 47.4734 31.6886C47.5665 31.7648 47.5622 31.8876 47.5622 31.9426C47.5622 33.0644 47.5622 34.1903 47.5622 35.3121C47.5622 35.5999 47.3421 35.638 47.249 35.655C45.2764 35.9979 43.1048 36.1545 40.6031 36.1333C39.1512 36.1206 37.585 36.0317 35.8155 35.8582C34.6726 35.7481 33.5128 35.5957 32.3952 35.4476L31.9211 35.3841C30.4311 35.1893 28.9199 34.9565 27.4637 34.7279C26.8838 34.639 26.2996 34.5459 25.7197 34.4613C25.1186 34.3681 24.5133 34.2919 23.908 34.2115C23.2899 34.1311 22.6719 34.0464 22.0581 33.9533C21.8676 33.9237 21.6772 33.9067 21.4867 33.8856C21.3724 33.8729 21.2623 33.8644 21.148 33.8517C21.1396 33.8517 21.1353 33.8517 21.1269 33.8517C21.1269 33.8559 21.1269 33.8644 21.1269 33.8729C21.1311 34.1734 21.0845 34.4613 21.0337 34.7406C21.3343 34.7787 21.6094 34.8168 21.8803 34.8507C22.2867 34.9057 22.6973 34.9608 23.1079 35.0031C23.6413 35.0624 24.1747 35.1428 24.6953 35.2232C24.9112 35.2571 25.1229 35.2909 25.3387 35.3206L26.3166 35.4645C27.5061 35.638 28.6955 35.8116 29.885 35.9979C31.4428 36.2434 32.9794 36.4381 34.1477 36.582C34.9181 36.6794 35.752 36.764 36.7002 36.8529C38.4527 37.0138 40.2137 37.035 41.7079 37.035C43.0498 37.035 44.4467 36.9376 45.8606 36.7429C46.3093 36.6794 46.7622 36.6159 47.2109 36.5439C47.2617 36.5355 47.376 36.5185 47.4649 36.5905C47.5453 36.6582 47.5538 36.7556 47.5538 36.8275C47.5538 37.9662 47.5538 39.1007 47.5538 40.2394C47.5538 40.5018 47.3379 40.5399 47.2532 40.5526C45.3526 40.8786 43.3546 41.0394 41.1534 41.0394L41.1619 41.0564Z" fill="#7D4DBA"/>
<path d="M10.2437 17.0634C10.2691 17.0846 10.3876 17.0719 10.4511 17.0634C10.5188 17.0549 10.5908 17.0465 10.6628 17.0507H10.8151C10.9337 17.0507 11.0395 17.0465 11.1496 17.0507C11.1496 17.0507 11.158 17.0507 11.1623 17.0507C11.1623 16.729 11.1623 16.4369 11.1623 16.1491C10.8405 16.1491 10.5442 16.1448 10.2437 16.1364C10.2437 16.2083 10.2437 16.2676 10.2437 16.3311C10.2437 16.42 10.2437 16.5131 10.2437 16.602C10.2437 16.6697 10.2437 16.7459 10.231 16.8221C10.2225 16.911 10.2098 17.0295 10.2394 17.0634H10.2437Z" fill="#7D4DBA"/>
<path d="M11.1622 12.7542C11.1622 12.6738 11.1622 12.5891 11.1622 12.5087C11.1622 12.4367 11.1665 12.3605 11.1749 12.2843C11.1834 12.1997 11.2003 12.0769 11.1749 12.0515C11.1411 12.0219 11.0141 12.0346 10.9294 12.0431C10.8575 12.0515 10.7855 12.0558 10.7178 12.0515H10.5781C10.468 12.0515 10.358 12.0558 10.2521 12.0515C10.2564 12.3732 10.2521 12.6695 10.2521 12.9616C10.4045 12.9616 10.5527 12.9574 10.6924 12.9574C10.8532 12.9574 11.0056 12.9574 11.1622 12.9616C11.1622 12.877 11.1622 12.8135 11.1622 12.7542Z" fill="#7D4DBA"/>
<path d="M10.9715 21.1398C11.035 21.1398 11.0985 21.1398 11.1577 21.144C11.1577 20.8223 11.1577 20.5302 11.1577 20.2424C10.8403 20.2424 10.5397 20.2382 10.2434 20.2255C10.2434 20.5472 10.2434 20.8435 10.2434 21.1398C10.3577 21.1398 10.4551 21.1398 10.5524 21.1398H10.8318C10.8784 21.1398 10.9249 21.1398 10.9715 21.1398Z" fill="#7D4DBA"/>
<path d="M15.2133 21.1356C15.3826 21.1356 15.5392 21.1356 15.6874 21.1441C15.6874 20.8224 15.6916 20.5261 15.6959 20.234H14.79C14.79 20.3525 14.79 20.4541 14.79 20.5557V20.6912V20.8182C14.79 20.924 14.79 21.0256 14.79 21.1314V21.1399C14.79 21.1399 14.7984 21.1399 14.8027 21.1399C14.9508 21.1399 15.0863 21.1356 15.2133 21.1356Z" fill="#7D4DBA"/>
<path d="M23.7471 21.4912C23.7471 21.597 23.7471 21.6944 23.7471 21.7918V21.9357V22.0796C23.7471 22.1897 23.7471 22.2997 23.7471 22.4098C24.0604 22.4055 24.3567 22.4055 24.6488 22.4098L24.6403 21.4954C24.3313 21.4954 24.0392 21.4954 23.7471 21.4954V21.4912Z" fill="#7D4DBA"/>
<path d="M23.7471 17.4021C23.7471 17.5079 23.7471 17.6095 23.7471 17.7069V17.8508V17.9905C23.7471 18.1006 23.7471 18.2064 23.7471 18.3164C23.8911 18.3164 24.0307 18.3164 24.1704 18.3164C24.3313 18.3164 24.4921 18.3164 24.6488 18.3207L24.6403 17.4063C24.3355 17.4063 24.0434 17.4063 23.7514 17.4063L23.7471 17.4021Z" fill="#7D4DBA"/>
<path d="M15.4077 12.0515H15.1157C15.0098 12.0515 14.8998 12.0515 14.7939 12.0515C14.7982 12.369 14.8024 12.6526 14.7939 12.9405C14.7728 12.9532 14.7855 12.9532 14.8109 12.9574C14.9421 12.9574 15.0776 12.9532 15.2088 12.9532C15.3654 12.9532 15.522 12.9532 15.6744 12.9616C15.6829 12.9828 15.6871 12.9701 15.6871 12.9362C15.6871 12.6272 15.6871 12.3436 15.6956 12.0557C15.5855 12.0557 15.4924 12.0557 15.4035 12.0557L15.4077 12.0515Z" fill="#7D4DBA"/>
<path d="M15.1586 17.0423C15.3364 17.0423 15.5099 17.0423 15.6835 17.0507C15.692 16.7417 15.6962 16.4412 15.7004 16.1406C15.3872 16.1406 15.0909 16.1406 14.7946 16.1406C14.7946 16.2549 14.7946 16.3523 14.7946 16.4496V16.7375C14.7946 16.8391 14.7946 16.9407 14.7946 17.0423C14.9215 17.0423 15.0443 17.0423 15.1628 17.0423H15.1586Z" fill="#7D4DBA"/>
<path d="M19.3659 16.7079C19.3659 16.7079 19.3659 16.7248 19.3659 16.7375C19.3744 16.8349 19.3744 16.9365 19.3702 17.0338V17.2878C19.3702 17.3936 19.3744 17.4995 19.3702 17.6011C19.3702 17.6011 19.3702 17.6011 19.3702 17.6053C19.3744 17.6053 19.3786 17.6053 19.3871 17.6053C19.6749 17.6011 19.9628 17.5968 20.2506 17.6053C20.2803 17.6053 20.293 17.6053 20.293 17.6053C20.2676 17.3005 20.2676 17.0042 20.2718 16.7121C20.2676 16.7121 20.2633 16.7121 20.2549 16.7121C19.967 16.7121 19.6792 16.7121 19.3913 16.7121C19.3786 16.7121 19.3702 16.7121 19.3617 16.7121L19.3659 16.7079Z" fill="#7D4DBA"/>
<path d="M20.0727 20.797C19.9965 20.8055 19.9203 20.8139 19.8483 20.8055H19.7002H19.3742C19.3827 21.106 19.3827 21.3896 19.3742 21.6775C19.3742 21.7198 19.3742 21.7325 19.3742 21.7325C19.48 21.7029 19.5732 21.7071 19.6663 21.7071C19.7171 21.7071 19.7679 21.7071 19.8229 21.7071C20.0049 21.7071 20.2166 21.7071 20.2462 21.6775C20.2758 21.6478 20.2716 21.4277 20.2716 21.2542C20.2716 21.1907 20.2801 21.1229 20.2885 21.0552C20.3012 20.9621 20.3139 20.8436 20.2801 20.8097C20.2504 20.7758 20.1573 20.7885 20.0727 20.797Z" fill="#7D4DBA"/>
<path d="M19.3786 13.186C19.3786 13.2918 19.3786 13.3934 19.3744 13.4992C19.3744 13.5077 19.3744 13.5161 19.3744 13.5246C19.3786 13.5246 19.3871 13.5246 19.3956 13.5246C19.6834 13.5161 19.9713 13.5161 20.2633 13.5246C20.293 13.5246 20.3014 13.5246 20.3014 13.5246C20.276 13.2198 20.276 12.932 20.2803 12.6441C20.3014 12.6314 20.293 12.6272 20.2633 12.6272C19.9755 12.6314 19.6876 12.6272 19.3998 12.6272C19.3617 12.6272 19.349 12.6272 19.349 12.6272C19.3829 12.7373 19.3829 12.8346 19.3786 12.932V13.1902V13.186Z" fill="#7D4DBA"/>
<path d="M24.653 14.2272C24.653 14.2272 24.653 14.2145 24.653 14.2018C24.6445 13.9098 24.6361 13.6134 24.6403 13.3214C24.6403 13.3214 24.6403 13.3171 24.6403 13.3129C24.6361 13.3129 24.6318 13.3129 24.6234 13.3129C24.5303 13.3171 24.4371 13.3171 24.344 13.3129C24.2932 13.3129 24.2382 13.3129 24.1874 13.3129C24.1239 13.3129 24.0562 13.3087 23.9884 13.3002C23.9122 13.2917 23.7641 13.279 23.7344 13.3044C23.7133 13.3214 23.7344 13.4526 23.7344 13.4992C23.7429 13.5711 23.7514 13.6473 23.7471 13.7235V13.8801C23.7471 14.0029 23.7514 14.1129 23.7471 14.223C23.7471 14.223 23.7556 14.223 23.7598 14.223C24.0477 14.2145 24.3355 14.2145 24.6234 14.223C24.6361 14.223 24.6445 14.223 24.653 14.223V14.2272Z" fill="#7D4DBA"/>
</svg>
