<svg width="145" height="155" viewBox="0 0 145 155" fill="none" xmlns="http://www.w3.org/2000/svg">
<g id="Group 1228">
<g id="Group">
<path id="Vector" d="M5.08557 43.2611C4.51214 43.7374 4.04562 44.3983 3.69573 45.2438C3.3264 46.1283 3.20977 46.9253 3.3264 47.6639C3.44303 48.3929 3.82208 48.8982 4.47326 49.1607C4.77456 49.287 5.13417 49.287 5.54237 49.1607C5.95057 49.0343 6.44625 48.6067 7.01968 47.8777L9.34256 44.962C10.227 43.7957 11.1309 43.0668 12.0542 42.7752C12.9775 42.4836 13.8717 42.5225 14.7561 42.8821C15.6503 43.2514 16.3112 43.8346 16.7388 44.6024C17.1665 45.3799 17.3706 46.2935 17.3511 47.3529C17.3317 48.4123 17.079 49.5203 16.593 50.6866C15.9807 52.1542 15.1643 53.3205 14.1535 54.1757C13.133 55.031 12.1125 55.4975 11.0823 55.5947C10.9559 55.5947 10.8587 55.5656 10.781 55.5267C10.7032 55.4975 10.6449 55.4295 10.6255 55.3323L10.47 53.7189C10.4505 53.5634 10.47 53.4468 10.5089 53.3691C10.5477 53.2913 10.6158 53.2524 10.7032 53.2427C11.2378 53.1261 11.7432 52.9511 12.2194 52.7082C12.6957 52.4652 13.1427 52.1153 13.5607 51.6585C13.9689 51.2017 14.3382 50.5894 14.6492 49.841C14.9116 49.2093 15.0574 48.6067 15.106 48.0235C15.1449 47.4404 15.0769 46.9447 14.8922 46.5268C14.7075 46.1088 14.4062 45.8173 13.998 45.6521C13.5704 45.4771 13.1233 45.4965 12.6665 45.7104C12.2097 45.9339 11.6752 46.4296 11.0823 47.2168L9.24537 49.6758C8.32205 50.8907 7.41817 51.6682 6.54344 51.9987C5.66872 52.3291 4.794 52.3097 3.90955 51.9501C3.02511 51.5807 2.36421 51.0365 1.89769 50.2881C1.44089 49.5494 1.19791 48.6747 1.16875 47.6639C1.1396 46.6531 1.37286 45.5743 1.84909 44.4274C2.37393 43.1737 3.06399 42.1629 3.93871 41.4145C4.81343 40.6564 5.71732 40.1899 6.65035 40.0149C6.74754 39.9955 6.83502 39.9858 6.92249 40.0052C7.00996 40.0247 7.06828 40.0927 7.09743 40.2385L7.24322 41.9393C7.24322 42.0268 7.22378 42.1046 7.17519 42.1823C7.12659 42.2601 7.04884 42.3087 6.94193 42.3573C6.30046 42.4933 5.68816 42.7946 5.11473 43.2709L5.08557 43.2611Z" fill="white"/>
<path id="Vector_2" d="M17.8372 38.4793C18.6536 38.5765 19.4408 38.4599 20.2086 38.1392C20.9667 37.8184 21.6082 37.313 22.133 36.6133C22.6676 35.894 22.998 35.1554 23.1244 34.3681C23.2507 33.5906 23.173 32.7256 22.9008 31.7926C22.8717 31.7051 22.8717 31.6273 22.9008 31.5787C22.93 31.5301 22.998 31.4718 23.1147 31.4135L24.5628 30.6457C24.7669 30.5291 24.903 30.6068 24.971 30.879C25.282 31.7926 25.4472 32.6576 25.457 33.4837C25.4667 34.3098 25.3306 35.1068 25.039 35.8843C24.7475 36.6619 24.3101 37.4394 23.727 38.2169C22.8425 39.4027 21.7928 40.2385 20.5877 40.7439C19.3825 41.2493 18.1093 41.4048 16.768 41.2104C15.4268 41.016 14.1439 40.462 12.9193 39.5387C11.5683 38.5279 10.6061 37.3908 10.0327 36.1273C9.45925 34.8735 9.24543 33.5809 9.39121 32.2688C9.537 30.9567 10.0327 29.7418 10.8685 28.6241C11.7335 27.4773 12.7443 26.6609 13.8912 26.1749C15.0478 25.6889 16.2724 25.5626 17.5845 25.7959C18.8965 26.0291 20.2281 26.6511 21.579 27.6619C21.7151 27.7688 21.8317 27.8757 21.9095 27.9827C21.9872 28.0896 21.9581 28.2256 21.8317 28.4006L15.3491 37.0312C15.2907 37.1089 15.281 37.1964 15.3199 37.2839C15.3588 37.3714 15.4365 37.4588 15.5434 37.5463C16.2432 38.0711 17.0013 38.3821 17.8177 38.4696L17.8372 38.4793ZM18.4981 29.8099C18.6244 29.6349 18.6827 29.5086 18.673 29.4308C18.6633 29.3531 18.5952 29.2656 18.4689 29.1684C17.876 28.7213 17.2248 28.4297 16.5056 28.2937C15.7864 28.1576 15.0866 28.1965 14.3966 28.4297C13.7065 28.663 13.1136 29.1198 12.5888 29.8196C12.0348 30.5485 11.7432 31.3066 11.7044 32.0939C11.6655 32.8811 11.8307 33.6198 12.2 34.3195C12.5694 35.0193 13.0845 35.6219 13.7357 36.1079L18.5078 29.8099H18.4981Z" fill="white"/>
<path id="Vector_3" d="M19.2852 15.5229C19.5573 15.8242 19.5476 16.106 19.2658 16.3684L17.6718 17.8166C17.5163 17.9624 17.3803 18.0207 17.2636 17.9915C17.147 17.9624 17.0304 17.8846 16.9137 17.7583L15.1254 15.795C14.9019 15.552 14.9019 15.3285 15.1254 15.1341L16.9137 13.511C17.1178 13.3263 17.3219 13.3555 17.526 13.579L19.2852 15.5229ZM31.3175 28.9061C31.4633 29.0616 31.5313 29.1977 31.5119 29.3143C31.5022 29.431 31.4147 29.5573 31.2592 29.7031L29.7916 31.0346C29.6361 31.1804 29.5098 31.2484 29.4126 31.2387C29.3154 31.2387 29.2085 31.1707 29.0918 31.0346L19.3144 20.2658C19.12 20.052 19.12 19.8479 19.3144 19.6632L21.0444 18.0984C21.2193 17.9429 21.3943 17.9624 21.5789 18.1665L31.3175 28.8964V28.9061Z" fill="white"/>
<path id="Vector_4" d="M32.9113 27.7688C32.8336 27.7494 32.7461 27.6814 32.6684 27.5453L32.163 26.758C32.0561 26.5928 31.9977 26.447 31.9783 26.3207C31.9589 26.1943 31.9589 25.9999 31.9783 25.7375L33.0183 12.3251C33.0377 12.0627 32.9308 12.0044 32.6975 12.1502L26.5745 16.0475C26.4384 16.135 26.3412 16.1642 26.2732 16.135C26.2051 16.1156 26.1274 16.0378 26.0399 15.9018L25.3401 14.7938C25.2138 14.5994 25.2429 14.4439 25.4179 14.3273L34.8649 8.32082C35.0496 8.20419 35.1953 8.24306 35.312 8.41801L35.8757 9.30245C35.9729 9.44824 36.0312 9.58431 36.0506 9.71066C36.0701 9.837 36.0798 10.0022 36.0798 10.2161L34.9912 23.6576C34.9718 23.9492 35.069 24.0172 35.3023 23.8715L42.0959 19.5562C42.3098 19.4201 42.475 19.4492 42.6013 19.6436L43.3205 20.771C43.3886 20.8682 43.408 20.9654 43.408 21.0626C43.408 21.1598 43.3205 21.257 43.1748 21.3445L33.2612 27.6522C33.1252 27.7397 33.028 27.7688 32.9405 27.7494L32.9113 27.7688Z" fill="white"/>
<path id="Vector_5" d="M45.5661 15.795C46.1881 16.3296 46.9073 16.6795 47.714 16.8447C48.5207 17.0099 49.3371 16.9516 50.1632 16.6697C51.0088 16.3782 51.7086 15.9505 52.2431 15.3771C52.7874 14.8037 53.2053 14.0553 53.5066 13.132C53.5358 13.0348 53.5747 12.9765 53.633 12.9473C53.6816 12.9181 53.7788 12.9181 53.9051 12.9279L55.5379 13.1125C55.7712 13.132 55.8392 13.2777 55.742 13.5402C55.4893 14.4732 55.1297 15.2799 54.6729 15.97C54.2161 16.66 53.6524 17.2432 52.9721 17.7194C52.2917 18.1956 51.4948 18.5941 50.5715 18.9051C49.1719 19.3814 47.8307 19.4883 46.5574 19.2259C45.2745 18.9635 44.1374 18.3803 43.1363 17.4667C42.1352 16.5531 41.3869 15.3771 40.8912 13.9192C40.3469 12.3156 40.1914 10.8382 40.4247 9.47756C40.6579 8.11688 41.2022 6.93114 42.0672 5.93007C42.9225 4.929 44.0207 4.20006 45.3426 3.75298C46.7032 3.28646 47.9959 3.17955 49.2205 3.43225C50.4451 3.68495 51.5336 4.2681 52.4861 5.20114C53.4386 6.12445 54.187 7.38794 54.7312 8.9916C54.7896 9.15683 54.8187 9.30262 54.8187 9.43868C54.8187 9.57475 54.7215 9.67194 54.5174 9.73998L44.3123 13.2292C44.2248 13.2583 44.1665 13.3263 44.1471 13.4235C44.1277 13.5207 44.1471 13.6374 44.186 13.7637C44.4678 14.5898 44.9246 15.2702 45.5467 15.8144L45.5661 15.795ZM50.9894 9.00132C51.1935 8.93329 51.3101 8.85554 51.349 8.7875C51.3879 8.70975 51.3781 8.60284 51.3295 8.45705C51.0963 7.75727 50.7172 7.14497 50.1924 6.62985C49.6773 6.10502 49.0747 5.74541 48.3749 5.55103C47.6849 5.35664 46.9171 5.40524 46.0909 5.68709C45.2259 5.97867 44.5553 6.44519 44.0791 7.06721C43.6028 7.68924 43.321 8.39874 43.2335 9.18599C43.146 9.97324 43.2335 10.7605 43.4959 11.5283L50.9797 9.00132H50.9894Z" fill="white"/>
<path id="Vector_6" d="M63.5267 20.217C63.2254 20.1684 63.0797 20.0324 63.0894 19.8186L63.1574 18.3315C63.1574 18.2149 63.2157 18.1177 63.3324 18.0497C63.4393 17.9719 63.6628 17.9525 63.9932 17.9622L65.8885 18.0497C66.2967 18.0691 66.6757 17.9622 67.0256 17.7387C67.3755 17.5151 67.6671 17.2138 67.9003 16.8542C68.1336 16.4946 68.2891 16.1156 68.3766 15.7171C68.4641 15.3186 68.4543 14.9687 68.3474 14.648L63.4004 0.535762C63.3518 0.399694 63.3518 0.273345 63.4198 0.156716C63.4781 0.0400859 63.6142 -0.00850982 63.8086 0.00120933L66.1995 0.10812C66.3161 0.10812 66.423 0.146997 66.5202 0.22475C66.6174 0.292784 66.666 0.389975 66.6855 0.506605L70.2427 11.1685C70.2913 11.3435 70.369 11.4406 70.4662 11.4406C70.5634 11.4406 70.6606 11.3337 70.7481 11.1005L75.1703 0.846775C75.2091 0.749584 75.2772 0.67183 75.3549 0.603796C75.4327 0.535762 75.5299 0.506605 75.6465 0.516324L77.3668 0.594077C77.5223 0.594077 77.6292 0.662111 77.6973 0.769022C77.7556 0.875933 77.7458 0.992562 77.6681 1.09947L70.6995 16.6987C70.3496 17.4762 69.99 18.1177 69.5915 18.6037C69.2027 19.0896 68.7751 19.4687 68.3183 19.7311C67.8615 19.9935 67.3561 20.1684 66.7924 20.2462C66.2384 20.3239 65.5969 20.3531 64.8777 20.3239C64.2945 20.2948 63.8572 20.2559 63.5559 20.2073L63.5267 20.217Z" fill="white"/>
<path id="Vector_7" d="M80.195 16.0864C79.2911 15.1339 78.7079 13.9968 78.4358 12.675C78.1637 11.3532 78.2414 9.9439 78.6593 8.44715C79.0967 6.89209 79.7965 5.61888 80.7392 4.62753C81.6917 3.63617 82.7997 2.96555 84.0826 2.61566C85.3656 2.27549 86.7068 2.29493 88.1064 2.69341C89.5642 3.10162 90.7402 3.8014 91.6247 4.76359C92.5091 5.73551 93.0923 6.88237 93.3547 8.22361C93.6268 9.56485 93.5394 10.9936 93.1117 12.5C92.6841 13.9968 92.0135 15.2311 91.0804 16.2127C90.1474 17.1944 89.0491 17.8553 87.7759 18.2052C86.5027 18.5551 85.1517 18.5259 83.7133 18.1177C82.2749 17.7095 81.0989 17.0292 80.195 16.0767V16.0864ZM86.7943 15.9989C87.5427 15.7268 88.1938 15.2214 88.7575 14.473C89.3213 13.7344 89.7683 12.7722 90.0988 11.5962C90.4292 10.4201 90.5556 9.36075 90.4681 8.42771C90.3806 7.49467 90.0891 6.70742 89.5934 6.07568C89.0977 5.44393 88.4076 4.99685 87.5329 4.75387C86.6582 4.50118 85.8321 4.52061 85.0837 4.80247C84.3256 5.08432 83.6647 5.59944 83.0913 6.34781C82.5178 7.09619 82.061 8.05838 81.7306 9.2344C81.4001 10.4104 81.2835 11.4698 81.3807 12.3931C81.4779 13.3164 81.7792 14.094 82.2846 14.7257C82.7803 15.3477 83.48 15.7948 84.3839 16.0475C85.2586 16.3002 86.0751 16.2808 86.8234 16.0086L86.7943 15.9989Z" fill="white"/>
<path id="Vector_8" d="M100.09 22.2484C100.897 22.2484 101.762 22.1221 102.695 21.8596L108.196 12.782C108.371 12.5001 108.614 12.4515 108.925 12.6459L110.723 13.7344C110.986 13.8997 111.044 14.1135 110.879 14.3759L103.278 26.8164C103.133 27.0497 102.967 27.108 102.763 26.9816L100.819 25.8056C100.625 25.689 100.586 25.514 100.712 25.3002L101.558 23.9007C101.607 23.8132 101.616 23.7549 101.597 23.6966C101.568 23.648 101.49 23.6383 101.354 23.6674C100.042 23.9201 98.9436 23.9784 98.0688 23.8618C97.1844 23.7354 96.3874 23.4536 95.6488 23.0065C94.9004 22.5497 94.327 21.986 93.9285 21.3154C93.53 20.6448 93.3356 19.9158 93.3453 19.1188C93.355 18.3316 93.598 17.5443 94.0743 16.7668L99.6142 7.61138C99.7988 7.31009 100.032 7.25177 100.333 7.43644L102.151 8.5347C102.404 8.6902 102.442 8.89431 102.287 9.15672L97.0483 17.8068C96.6207 18.526 96.4652 19.2258 96.6012 19.9255C96.7373 20.6253 97.1649 21.189 97.8744 21.6167C98.5353 22.0152 99.274 22.2193 100.081 22.2193L100.09 22.2484Z" fill="white"/>
<path id="Vector_9" d="M104.998 28.9059C104.998 28.799 105.047 28.6824 105.154 28.5754L115.252 18.1079C115.456 17.8941 115.651 17.8844 115.826 18.0593L117.439 19.6144C117.604 19.7796 117.604 19.9448 117.429 20.1295L116.156 21.4513C116.078 21.5388 116.049 21.6068 116.088 21.6651C116.127 21.7234 116.205 21.7526 116.331 21.7332C117.089 21.6554 117.769 21.6457 118.391 21.7137C119.013 21.7818 119.567 21.9275 120.073 22.1414C120.568 22.3552 121.006 22.637 121.365 22.9869C121.851 23.4632 122.007 23.7936 121.813 23.988L120.238 25.6208C120.073 25.786 119.927 25.786 119.801 25.6111C119.674 25.407 119.519 25.2029 119.344 25.0085C119.169 24.8141 118.984 24.6197 118.79 24.4351C118.498 24.1532 118.129 23.92 117.682 23.7353C117.235 23.5506 116.778 23.434 116.292 23.3854C115.806 23.3368 115.349 23.366 114.912 23.4534C114.475 23.5409 114.115 23.7256 113.853 24.0074L107.399 30.7039C107.166 30.9469 106.923 30.9372 106.66 30.6748L105.173 29.2363C105.066 29.1294 105.008 29.0225 104.998 28.9059Z" fill="white"/>
</g>
<g id="Group_2">
<path id="Vector_10" d="M17.3799 130.996C17.3702 130.879 17.4188 130.762 17.5257 130.656L18.2935 129.859C18.3907 129.761 18.4102 129.674 18.3713 129.606C18.3324 129.538 18.2352 129.509 18.0991 129.509C17.759 129.509 17.3313 129.48 16.8357 129.431C16.34 129.392 15.7957 129.246 15.2126 129.013C14.6294 128.78 14.0463 128.381 13.4728 127.837C12.5981 127.001 12.0247 126.049 11.7234 124.96C11.4318 123.872 11.4804 122.725 11.8886 121.5C12.2871 120.285 13.0841 119.051 14.2795 117.797C15.4167 116.602 16.6316 115.766 17.895 115.28C19.1683 114.794 20.4026 114.658 21.6078 114.862C22.8129 115.066 23.8723 115.601 24.7859 116.475C25.4468 117.107 25.9036 117.748 26.1563 118.39C26.409 119.041 26.5645 119.692 26.6228 120.373C26.6423 120.577 26.6909 120.693 26.7686 120.732C26.8464 120.761 26.9533 120.703 27.1088 120.548L31.8031 115.639C32.0072 115.426 32.2016 115.406 32.3766 115.581L34.0677 117.195C34.2524 117.369 34.2427 117.564 34.0385 117.778L19.732 132.735C19.6153 132.862 19.4987 132.93 19.3821 132.93C19.2752 132.93 19.1391 132.862 18.9836 132.716L17.5257 131.326C17.4285 131.229 17.3702 131.122 17.3605 131.005L17.3799 130.996ZM25.0289 120.275C24.8345 119.663 24.4846 119.109 23.9792 118.633C23.3572 118.04 22.6574 117.671 21.8605 117.535C21.0635 117.399 20.2276 117.515 19.3432 117.894C18.4588 118.273 17.5549 118.944 16.6218 119.916C15.6791 120.897 15.0571 121.831 14.746 122.725C14.435 123.609 14.3767 124.426 14.5711 125.164C14.7655 125.903 15.1445 126.544 15.7082 127.079C16.2136 127.565 16.7871 127.876 17.4188 128.031C18.0505 128.187 18.6629 128.197 19.246 128.061C19.8292 127.934 20.286 127.691 20.6261 127.341L25.3399 122.414C25.3205 121.617 25.2136 120.907 25.0289 120.295V120.275Z" fill="white"/>
<path id="Vector_11" d="M31.4434 140.472C30.559 140.385 29.6648 140.093 28.761 139.597C27.4489 138.878 26.6033 137.974 26.234 136.876C25.8549 135.787 25.9716 134.679 26.5839 133.571C27.099 132.638 27.8085 131.977 28.7124 131.608C29.6163 131.239 30.6854 131.142 31.9294 131.317C33.1735 131.491 34.5633 131.948 36.0795 132.697L37.8095 133.484C37.9261 133.523 38.033 133.542 38.1497 133.533C38.2663 133.533 38.3538 133.455 38.4315 133.319L38.7814 132.677C39.2382 131.841 39.3451 131.044 39.1021 130.277C38.8592 129.509 38.2955 128.887 37.411 128.401C36.7501 128.031 36.0503 127.857 35.3214 127.847C34.5925 127.847 33.8246 128.051 33.0277 128.449C32.9305 128.508 32.843 128.537 32.775 128.547C32.7069 128.547 32.6097 128.498 32.4931 128.391L31.0352 126.923C30.9867 126.855 30.9672 126.778 30.9769 126.71C30.9769 126.632 31.0644 126.535 31.2296 126.399C32.2307 125.747 33.3484 125.436 34.5827 125.466C35.8171 125.495 37.1389 125.884 38.5384 126.651C39.763 127.322 40.6766 128.051 41.2695 128.828C41.8624 129.606 42.1734 130.432 42.1928 131.297C42.2123 132.162 41.9887 133.037 41.493 133.921L36.5363 142.941C36.4391 143.116 36.3516 143.213 36.2544 143.232C36.167 143.261 36.0503 143.232 35.9143 143.164L34.1745 142.212C34.0579 142.144 33.9899 142.046 33.9704 141.92C33.951 141.794 33.9704 141.638 34.0482 141.483L34.5536 140.501C34.6508 140.2 34.5147 140.103 34.1454 140.21C33.2318 140.462 32.3279 140.54 31.4532 140.462L31.4434 140.472ZM37.032 135.02L35.5935 134.368C34.8937 134.028 34.2231 133.775 33.5817 133.61C32.9402 133.445 32.3571 133.377 31.8225 133.396C31.2879 133.416 30.8214 133.523 30.4035 133.737C29.9953 133.941 29.6648 134.271 29.4219 134.709C29.0525 135.369 29.0039 136.021 29.2566 136.662C29.5093 137.304 30.0439 137.838 30.8506 138.285C31.3657 138.567 31.8905 138.742 32.4445 138.81C32.9985 138.878 33.5136 138.868 34.0093 138.781C34.505 138.674 34.9423 138.528 35.302 138.334C35.6713 138.13 35.9337 137.887 36.0892 137.605L37.1875 135.612C37.343 135.321 37.2944 135.126 37.0417 135.029L37.032 135.02Z" fill="white"/>
<path id="Vector_12" d="M45.721 146.119C45.653 146.323 45.5655 146.449 45.4586 146.498C45.3517 146.546 45.1962 146.537 44.9921 146.469L43.1066 145.856C42.9025 145.788 42.7761 145.711 42.7372 145.623C42.6887 145.536 42.6984 145.409 42.7567 145.244L47.2858 131.423C47.3733 131.142 47.5482 131.054 47.8106 131.132L50.0266 131.861C50.2502 131.939 50.3182 132.104 50.2307 132.356L45.7113 146.128L45.721 146.119ZM51.4067 129.052C51.2804 129.441 51.0277 129.577 50.6584 129.45L48.6076 128.78C48.4035 128.712 48.2869 128.624 48.248 128.508C48.2091 128.391 48.2286 128.255 48.2772 128.09L49.1033 125.572C49.2102 125.261 49.3949 125.145 49.6767 125.242L51.9802 126C52.2426 126.088 52.3203 126.272 52.2231 126.574L51.4067 129.071V129.052Z" fill="white"/>
<path id="Vector_13" d="M54.6332 148.276C54.5944 148.49 54.5166 148.617 54.4194 148.675C54.3222 148.733 54.157 148.743 53.9237 148.694L51.9799 148.306C51.6397 148.237 51.494 148.053 51.5523 147.742L55.6829 127.429C55.7412 127.147 55.887 127.021 56.1397 127.069L58.3945 127.526C58.6375 127.575 58.7347 127.74 58.6764 128.031L54.6235 148.276H54.6332Z" fill="white"/>
<path id="Vector_14" d="M60.9802 154.711C60.6789 154.672 60.5331 154.536 60.5331 154.322L60.5525 152.835C60.5525 152.718 60.6108 152.621 60.7177 152.543C60.8247 152.465 61.0482 152.427 61.3786 152.436L63.2739 152.456C63.6821 152.456 64.0611 152.339 64.4013 152.106C64.7415 151.873 65.0233 151.562 65.2469 151.202C65.4704 150.842 65.6065 150.454 65.6842 150.055C65.762 149.657 65.7328 149.307 65.6259 148.986L60.2221 135.039C60.1638 134.903 60.1638 134.777 60.2221 134.66C60.2804 134.543 60.4067 134.485 60.6011 134.485L62.992 134.514C63.1087 134.514 63.2156 134.553 63.3128 134.621C63.4099 134.689 63.4683 134.786 63.4877 134.903L67.3851 145.448C67.4434 145.623 67.5211 145.711 67.6183 145.711C67.7155 145.711 67.803 145.594 67.8808 145.361L71.9725 134.971C72.0114 134.874 72.0697 134.796 72.1475 134.728C72.2252 134.66 72.3224 134.631 72.439 134.631L74.1593 134.65C74.3148 134.65 74.4217 134.709 74.4898 134.815C74.5578 134.922 74.5481 135.039 74.4703 135.146L68.0168 150.959C67.6961 151.756 67.3462 152.397 66.9769 152.903C66.5978 153.408 66.1896 153.797 65.7425 154.069C65.2955 154.341 64.7901 154.536 64.2361 154.633C63.6821 154.73 63.0406 154.779 62.3214 154.769C61.7383 154.769 61.2912 154.74 60.9899 154.691L60.9802 154.711Z" fill="white"/>
<path id="Vector_15" d="M86.2788 132.599L86.6676 133.668C86.7162 133.795 86.7648 133.853 86.8328 133.843C86.9009 133.834 86.9689 133.756 87.0467 133.63C87.2022 133.309 87.3965 132.94 87.6492 132.531C87.8922 132.123 88.2518 131.715 88.7086 131.297C89.1654 130.879 89.7875 130.539 90.5747 130.257C91.6924 129.859 92.7907 129.771 93.8695 129.985C94.9483 130.208 95.9494 130.762 96.8533 131.657C97.7572 132.551 98.5153 133.824 99.1178 135.496C99.7204 137.177 99.9731 138.684 99.8565 140.015C99.7399 141.347 99.3317 142.474 98.6222 143.397C97.9127 144.321 96.9408 145.011 95.7161 145.448C94.9095 145.74 94.1514 145.876 93.4321 145.847C92.7129 145.827 92.0423 145.691 91.4106 145.438C91.187 145.331 91.0412 145.312 90.9829 145.361C90.9246 145.419 90.9246 145.555 91.0024 145.769L92.8296 150.842C92.9267 151.095 92.8587 151.27 92.6352 151.348L90.4095 152.145C90.1762 152.232 90.011 152.145 89.9138 151.892L83.3825 133.698C83.3145 133.513 83.3048 133.377 83.3534 133.27C83.402 133.173 83.5283 133.085 83.7227 133.017L85.6471 132.327C85.9581 132.22 86.1622 132.308 86.2691 132.599H86.2788ZM92.1201 143.99C92.7712 144.097 93.4321 144.029 94.1028 143.786C94.9289 143.495 95.5704 143.018 96.0272 142.377C96.4937 141.735 96.7367 140.929 96.7852 139.957C96.8241 138.985 96.6103 137.848 96.1535 136.545C95.687 135.243 95.133 134.271 94.4915 133.61C93.8501 132.949 93.1697 132.551 92.4311 132.415C91.7021 132.279 90.9635 132.337 90.2345 132.599C89.5542 132.842 89.0099 133.202 88.5823 133.688C88.1546 134.174 87.8728 134.689 87.727 135.233C87.5812 135.778 87.5909 136.273 87.7464 136.711L90.1179 143.32C90.7983 143.65 91.4591 143.874 92.1103 143.98L92.1201 143.99Z" fill="white"/>
<path id="Vector_16" d="M107.525 139.49C107.418 139.471 107.321 139.393 107.234 139.257L99.3513 127.03C99.1958 126.787 99.2249 126.593 99.429 126.457L101.315 125.242C101.509 125.116 101.674 125.155 101.81 125.368L102.811 126.914C102.87 127.011 102.938 127.05 103.006 127.03C103.074 127.011 103.113 126.943 103.122 126.817C103.21 126.058 103.365 125.398 103.579 124.805C103.793 124.222 104.055 123.706 104.376 123.269C104.697 122.832 105.066 122.472 105.494 122.2C106.067 121.831 106.427 121.763 106.573 121.986L107.807 123.901C107.933 124.095 107.894 124.241 107.7 124.319C107.467 124.396 107.243 124.494 107.01 124.62C106.777 124.746 106.553 124.882 106.32 125.028C105.98 125.252 105.669 125.553 105.387 125.942C105.105 126.331 104.891 126.758 104.736 127.215C104.58 127.672 104.493 128.129 104.483 128.576C104.473 129.023 104.57 129.412 104.784 129.732L109.829 137.547C110.003 137.828 109.945 138.062 109.634 138.266L107.894 139.383C107.768 139.471 107.642 139.5 107.535 139.471L107.525 139.49Z" fill="white"/>
<path id="Vector_17" d="M108.915 115.6C109.187 115.911 109.177 116.184 108.886 116.446L107.262 117.875C107.097 118.021 106.961 118.069 106.845 118.04C106.728 118.011 106.611 117.933 106.495 117.797L104.745 115.805C104.531 115.562 104.522 115.338 104.745 115.144L106.563 113.54C106.767 113.355 106.971 113.385 107.175 113.618L108.915 115.591V115.6ZM120.743 129.159C120.879 129.324 120.947 129.46 120.937 129.577C120.928 129.693 120.84 129.82 120.675 129.965L119.188 131.277C119.023 131.423 118.896 131.482 118.799 131.482C118.702 131.482 118.595 131.404 118.478 131.277L108.856 120.363C108.662 120.139 108.672 119.945 108.876 119.76L110.625 118.215C110.8 118.059 110.975 118.089 111.16 118.293L120.743 129.168V129.159Z" fill="white"/>
<path id="Vector_18" d="M126.74 124.328L114.63 116.261C114.387 116.096 114.338 115.912 114.474 115.708L115.738 113.812C115.864 113.618 116.039 113.589 116.243 113.735L117.575 114.629C117.652 114.687 117.73 114.697 117.779 114.658C117.837 114.629 117.847 114.551 117.808 114.434C117.74 113.666 117.701 112.957 117.691 112.325C117.691 111.693 117.759 111.091 117.905 110.527C118.061 109.963 118.313 109.419 118.673 108.885C119.285 107.961 120.004 107.349 120.821 107.057C121.637 106.756 122.415 106.708 123.154 106.892C123.241 106.902 123.29 106.873 123.319 106.805C123.338 106.737 123.338 106.649 123.319 106.542C123.192 105.784 123.134 105.065 123.124 104.385C123.124 103.704 123.192 103.063 123.338 102.46C123.484 101.858 123.737 101.284 124.087 100.75C124.864 99.5834 125.807 98.9031 126.925 98.699C128.042 98.4949 129.17 98.7767 130.326 99.5446L139.229 105.473C139.521 105.668 139.569 105.911 139.375 106.202L138.179 108C138.102 108.117 138.014 108.175 137.927 108.195C137.829 108.214 137.713 108.175 137.567 108.078L129.072 102.421C128.363 101.945 127.683 101.751 127.041 101.838C126.4 101.926 125.846 102.324 125.369 103.034C125.088 103.452 124.903 103.908 124.806 104.414C124.709 104.91 124.67 105.395 124.699 105.862C124.718 106.338 124.767 106.766 124.835 107.164C124.874 107.349 124.922 107.505 124.99 107.611C125.058 107.728 125.165 107.835 125.331 107.942L133.825 113.598C134.117 113.793 134.165 114.036 133.971 114.327L132.795 116.096C132.717 116.213 132.63 116.281 132.532 116.31C132.435 116.339 132.309 116.31 132.163 116.203L123.669 110.547C122.959 110.07 122.288 109.866 121.657 109.944C121.025 110.022 120.461 110.42 119.966 111.169C119.557 111.781 119.334 112.442 119.295 113.151C119.256 113.861 119.324 114.745 119.509 115.805L128.441 121.753C128.713 121.937 128.752 122.18 128.548 122.491L127.401 124.212C127.226 124.474 127.012 124.513 126.75 124.338L126.74 124.328Z" fill="white"/>
<path id="Vector_19" d="M138.947 93.7908C139.734 93.5576 140.424 93.1591 141.008 92.5759C141.591 91.9928 141.989 91.2736 142.203 90.428C142.427 89.563 142.446 88.7466 142.261 87.969C142.077 87.2012 141.678 86.4334 141.076 85.6753C141.017 85.5976 140.988 85.5295 140.998 85.4712C140.998 85.4129 141.046 85.3352 141.134 85.238L142.184 83.9745C142.329 83.7898 142.485 83.8093 142.65 84.0328C143.292 84.7617 143.768 85.5004 144.098 86.2585C144.429 87.0166 144.604 87.8038 144.633 88.6397C144.662 89.4658 144.555 90.36 144.312 91.293C143.943 92.7217 143.301 93.9074 142.378 94.8308C141.455 95.7638 140.347 96.3955 139.035 96.726C137.722 97.0662 136.323 97.037 134.836 96.658C133.193 96.24 131.872 95.5597 130.861 94.6169C129.85 93.6742 129.16 92.5662 128.791 91.3027C128.421 90.0295 128.412 88.7174 128.761 87.3665C129.121 85.9766 129.733 84.8298 130.618 83.9453C131.502 83.0609 132.591 82.468 133.883 82.1764C135.186 81.8849 136.653 81.9529 138.286 82.3708C138.451 82.4097 138.597 82.468 138.714 82.536C138.83 82.6041 138.86 82.7401 138.801 82.954L136.119 93.402C136.099 93.4992 136.119 93.577 136.187 93.645C136.265 93.7131 136.362 93.7617 136.498 93.8005C137.343 94.0144 138.16 94.0144 138.957 93.7811L138.947 93.7908ZM136.235 85.5295C136.284 85.3254 136.294 85.1797 136.255 85.1116C136.216 85.0436 136.119 84.9853 135.963 84.9464C135.244 84.7617 134.535 84.7423 133.815 84.8881C133.096 85.0339 132.464 85.3449 131.92 85.8211C131.376 86.2974 130.997 86.9583 130.783 87.8038C130.559 88.6883 130.569 89.5047 130.832 90.2433C131.094 90.982 131.531 91.604 132.144 92.1191C132.756 92.6245 133.456 92.9841 134.253 93.1882L136.245 85.5393L136.235 85.5295Z" fill="white"/>
</g>
<g id="Group_3">
<path id="Vector_20" d="M47.7333 74.5568C48.3553 73.964 49.2009 73.3128 50.0076 72.6325C51.864 71.0482 53.73 69.4834 55.6058 67.9284C56.0237 67.5882 56.1112 67.2383 56.0626 66.7329C55.7419 63.4479 55.4212 60.1725 55.1004 56.8874C54.9158 54.9144 56.568 53.3302 58.473 53.6024C59.2505 53.6898 59.8531 54.1564 60.4654 54.5451C63.0604 56.1488 65.6554 57.7816 68.2213 59.3853C68.5614 59.6185 68.9113 59.5894 69.2807 59.4339C72.2839 58.1023 75.3163 56.7902 78.3486 55.4879C79.9134 54.7978 81.5171 55.3032 82.2946 56.7319C82.6834 57.4414 82.7514 58.1801 82.5667 58.9576C81.7892 62.1066 81.002 65.2459 80.2244 68.3657C80.0884 68.9197 80.1078 69.3571 80.5257 69.8139C82.732 72.2728 84.9091 74.7221 87.0667 77.2102C87.8928 78.1529 88.0775 79.2026 87.5915 80.3592C87.1056 81.506 86.2114 82.1086 84.9771 82.1961C81.692 82.4294 78.4361 82.6821 75.151 82.8862C74.6262 82.9056 74.3055 83.1194 74.0236 83.5762C72.3714 86.4434 70.6705 89.2911 68.9988 92.1193C68.3573 93.1982 67.3951 93.7036 66.1511 93.5869C64.9362 93.4897 64.0809 92.8094 63.6241 91.682C62.4092 88.7176 61.1943 85.763 60.0475 82.7987C59.7753 82.0892 59.3866 81.7685 58.6285 81.6032C55.5086 80.9618 52.4082 80.2523 49.3078 79.5622C47.0141 79.0568 46.0908 76.4424 47.7236 74.5374V74.586L47.7333 74.5568ZM49.3661 76.1411C49.3661 76.1411 49.2787 76.2771 49.2495 76.3452C49.0454 76.8311 49.3175 77.2393 49.9396 77.3754C53.1274 78.0849 56.325 78.7944 59.5129 79.4845C60.7764 79.7566 61.5831 80.4758 62.0593 81.6421C63.2548 84.6453 64.4891 87.6583 65.6846 90.642C65.8207 90.9919 65.9859 91.3029 66.4232 91.3029C66.8412 91.3029 67.0161 91.0502 67.2008 90.7295C68.8725 87.8624 70.5733 85.0146 72.2547 82.1475C72.8281 81.1561 73.7029 80.6799 74.8011 80.6119C78.1251 80.3786 81.4588 80.1259 84.7827 79.9024C85.1229 79.8829 85.4047 79.7372 85.5214 79.4164C85.638 79.0957 85.5214 78.843 85.2881 78.5903C83.0819 76.1119 80.9048 73.6335 78.6985 71.1551C77.8724 70.2415 77.6391 69.2308 77.9404 68.0353C78.718 64.964 79.4761 61.8636 80.2341 58.7827C80.3216 58.3647 80.5354 57.9371 80.1175 57.5872C79.6802 57.2179 79.2914 57.5192 78.8735 57.6747C75.9091 58.9576 72.9253 60.2697 69.9707 61.5526C68.9599 61.99 67.9783 61.8928 67.0355 61.2999C64.2073 59.531 61.3887 57.7913 58.5896 56.0224C58.2883 55.8378 58.0162 55.7211 57.676 55.935C57.3358 56.1391 57.3067 56.4404 57.3553 56.7805C57.676 60.1045 57.9967 63.4381 58.3175 66.7426C58.4341 67.8409 58.0648 68.7351 57.2386 69.4543C55.5184 70.9219 53.7981 72.3506 52.0778 73.789C51.1836 74.5471 50.2603 75.3052 49.3467 76.0828L49.3661 76.1313V76.1411Z" fill="white"/>
<path id="Vector_21" d="M56.0627 87.8718C55.7226 88.2897 55.4018 88.6785 55.0325 89.0867C54.5465 89.6115 53.9051 89.6796 53.3997 89.2714C52.8943 88.834 52.8457 88.1925 53.3122 87.6385C54.0023 86.8124 54.6923 86.0057 55.3824 85.1796C55.8392 84.6548 56.5292 84.6062 57.0152 85.0144C57.5012 85.4323 57.5206 86.0932 57.1027 86.618L57.0832 86.6375C56.7431 87.0554 56.3932 87.4442 56.053 87.8524H56.0724L56.0627 87.8718Z" fill="white"/>
<path id="Vector_22" d="M90.1965 67.3062C90.041 67.5103 89.8077 67.627 89.555 67.695C88.5248 67.9477 87.4848 68.2198 86.4352 68.4531C85.7451 68.6183 85.1717 68.249 85.0162 67.627C84.8801 67.0341 85.2203 66.4315 85.8617 66.2468C86.9211 65.9747 87.9708 65.722 89.0107 65.4693C89.5647 65.3332 90.0215 65.5568 90.2937 66.0233C90.5269 66.4412 90.4783 66.9369 90.177 67.3062H90.1965Z" fill="white"/>
<path id="Vector_23" d="M68.9404 49.3064C69.2417 48.937 69.7471 48.8204 70.1845 48.9856C70.6218 49.1509 70.9426 49.5591 70.9231 50.045C70.8551 51.2113 70.7871 52.3873 70.6704 53.5342C70.6024 54.1271 70.0484 54.5255 69.475 54.4769C68.8821 54.4283 68.3962 53.9521 68.4156 53.3495C68.4642 52.2027 68.5808 51.0558 68.6683 49.9089C68.6683 49.6757 68.8044 49.491 68.9404 49.3355V49.3161V49.3064Z" fill="white"/>
<path id="Vector_24" d="M80.5161 90.9919C80.0593 91.5459 79.1846 91.5653 78.7764 90.9725C78.1349 90.0103 77.5129 88.9995 76.92 88.0081C76.5993 87.4833 76.8034 86.8418 77.338 86.5211C77.8628 86.2003 78.5334 86.3364 78.8736 86.8904C79.4665 87.8332 80.0691 88.7759 80.6425 89.709C80.9146 90.1658 80.8466 90.6323 80.5258 91.021V91.0016L80.5161 90.9919Z" fill="white"/>
<path id="Vector_25" d="M51.9321 65.5081C51.6113 65.8774 51.174 66.0135 50.688 65.8289C49.6286 65.4109 48.5984 65.0027 47.5682 64.5459C46.9753 64.2932 46.742 63.6518 46.9947 63.0783C47.228 62.5243 47.8209 62.2328 48.4137 62.4563C49.4731 62.8742 50.5228 63.3019 51.5822 63.7392C52.2917 64.0405 52.4569 64.9055 51.9515 65.5081H51.9321Z" fill="white"/>
</g>
<path id="Vector_26" d="M2.50036 89.1256C4.12346 89.3978 5.65909 88.2995 5.93122 86.6667C6.20336 85.0339 5.1051 83.508 3.47228 83.2358C1.83946 82.9637 0.313555 84.062 0.0414192 85.6948C-0.230717 87.3276 0.867547 88.8535 2.50036 89.1256Z" fill="white"/>
<path id="Vector_27" d="M133.767 60.9013C135.39 61.1734 136.926 60.0752 137.198 58.4423C137.47 56.8095 136.372 55.2836 134.739 55.0115C133.106 54.7393 131.58 55.8376 131.308 57.4704C131.036 59.1032 132.134 60.6292 133.767 60.9013Z" fill="white"/>
</g>
</svg>
